<svg xmlns="http://www.w3.org/2000/svg" xmlns:xlink="http://www.w3.org/1999/xlink" width="44px" height="44px" viewBox="0 0 44 44" version="1.1">
    <!-- Generator: Sketch 55.2 (78181) - https://sketchapp.com -->
    <title>Logo Responsivo Copy</title>
    <desc>Created with Sketch.</desc>
    <defs>
        <polygon id="path-1" points="0 0.275419847 43.7356305 0.275419847 43.7356305 44 0 44"/>
    </defs>
    <g id="DESK-Y-MOBILE" stroke="none" stroke-width="1" fill="none" fill-rule="evenodd">
        <g id="home01" transform="translate(-147.000000, -7.000000)">
            <g id="Logo-Responsivo-Copy" transform="translate(147.000000, 7.000000)">
                <g id="Group-3">
                    <mask id="mask-2" fill="white">
                        <use xlink:href="#path-1"/>
                    </mask>
                    <g id="Clip-2"/>
                    <path d="M43.7356305,22.162229 C43.7356305,34.2168855 33.9394168,44 21.8861038,44 C9.79618015,44 -3.35877863e-05,34.2168855 -3.35877863e-05,22.162229 C-3.35877863e-05,10.0588702 9.79618015,0.275419847 21.8861038,0.275419847 C33.9394168,0.275419847 43.7356305,10.0588702 43.7356305,22.162229" id="Fill-1" fill="#6BC39C" mask="url(#mask-2)"/>
                </g>
                <path d="M22.5085024,31.3333333 C19.664522,31.2949038 17.1064678,30.6112316 15.2771517,28.2996403 C14.0723228,26.7714515 13.5884216,24.9900756 13.542918,23.0988958 C13.4729645,19.9924852 14.2112109,17.1785493 16.8473684,15.1382779 C19.0828219,13.4143225 21.7053963,13.1299068 24.423053,13.4458869 C25.4061363,13.5566982 26.3627325,13.869992 27.3288368,14.1151201 C28.0650457,14.302492 28.6246731,14.6768999 28.3577635,15.4539223 C28.1675988,16.0106652 27.872504,16.6785553 27.7064495,17.2131359 C27.3478533,18.3796769 27.4405586,18.3625515 26.1976967,18.0391839 C25.2679274,17.7957348 24.3062375,17.5113191 23.3622058,17.5207213 C20.8201119,17.5475846 19.3490524,19.0035782 19.157869,21.5811166 C19.1001405,22.3641832 19.1592273,23.1747848 19.2943801,23.9538219 C19.6573908,26.0142408 21.0269159,27.188505 23.1863035,27.1623133 C24.3177832,27.1472026 25.4563941,26.8990524 26.5647824,26.6478801 C27.259223,26.4867 27.661625,26.5360614 27.8219066,27.2818552 C27.9516261,27.8846016 28.1285471,28.4853332 28.332295,29.0659174 C28.5944505,29.8187627 28.3309367,30.2865208 27.5685801,30.4560957 C25.8975082,30.8422564 25.0115447,31.065558 23.2419946,31.3093429 C23.0256823,31.3093429 22.7404353,31.3355346 22.5085024,31.3333333" id="Fill-4" fill="#3E1D56"/>
                <path d="M32.4923077,22.3356166 C32.4923077,23.623736 31.4290588,24.6666667 30.1241462,24.6666667 C28.8153129,24.6666667 27.7538462,23.623736 27.7538462,22.3356166 C27.7538462,21.0471459 28.8153129,20 30.1241462,20 C31.4290588,20 32.4923077,21.0471459 32.4923077,22.3356166" id="Fill-6" fill="#EC178C"/>
            </g>
        </g>
    </g>
</svg>