<svg xmlns="http://www.w3.org/2000/svg" xmlns:xlink="http://www.w3.org/1999/xlink" version="1.1" id="Capa_1" x="0px" y="0px" viewBox="0 0 347 127" enable-background="new 0 0 347 127" xml:space="preserve">
<polygon fill="#FFFFFF" points="135.7,67.7 124.6,67.7 124.6,74.6 134.8,74.6 134.3,80.2 124.6,80.2 124.6,92 117.3,92 117.3,62.1   136.2,62.1 "/>
<path fill="#FFFFFF" d="M140.2,92V71.6l7.1-0.3V92H140.2z M140.3,62.2h6.9v6h-6.9V62.2z"/>
<g>
	<defs>
		<rect id="SVGID_1_" x="-49" y="-154" width="792" height="612"/>
	</defs>
	<clipPath id="SVGID_2_">
		<use xlink:href="#SVGID_1_" overflow="visible"/>
	</clipPath>
	<path clip-path="url(#SVGID_2_)" fill="#FFFFFF" d="M164.1,92V78.4c0-0.3,0-0.5-0.1-0.7c0-0.2-0.1-0.3-0.2-0.4   c-0.1-0.1-0.2-0.2-0.4-0.2c-0.2,0-0.4-0.1-0.6-0.1c-0.5,0-1,0.2-1.5,0.5c-0.6,0.3-1.1,0.7-1.7,1.2V92h-7.2V71.4l6.4-0.3   c0.1,0.2,0.1,0.3,0.2,0.6c0.1,0.2,0.1,0.5,0.2,0.7c0,0.2,0.1,0.5,0.1,0.8c0,0.3,0.1,0.5,0.1,0.8c0.5-0.4,1-0.8,1.6-1.2   c0.5-0.4,1.1-0.7,1.7-1c0.6-0.3,1.1-0.5,1.7-0.6s1.1-0.2,1.6-0.2c1,0,1.8,0.1,2.5,0.4c0.7,0.2,1.3,0.6,1.7,1.1   c0.4,0.5,0.8,1.1,1,1.9c0.2,0.8,0.3,1.6,0.3,2.7V92H164.1z"/>
	<path clip-path="url(#SVGID_2_)" fill="#FFFFFF" d="M176.4,92V71.6l7.1-0.3V92H176.4z M176.5,62.2h6.9v6h-6.9V62.2z"/>
	<path clip-path="url(#SVGID_2_)" fill="#FFFFFF" d="M204.5,85.3c0,1.1-0.2,2-0.6,2.9c-0.4,0.9-1,1.6-1.7,2.2   c-0.8,0.6-1.7,1.1-2.8,1.4c-1.1,0.3-2.4,0.5-3.9,0.5c-1.5,0-2.9-0.1-4.3-0.4s-2.7-0.6-3.9-1.1l1.2-5.2c0.6,0.2,1.2,0.5,1.8,0.7   c0.7,0.2,1.3,0.4,2,0.5c0.7,0.1,1.3,0.2,1.9,0.3c0.6,0.1,1.2,0.1,1.6,0.1c0.7,0,1.2-0.1,1.5-0.3c0.3-0.2,0.5-0.4,0.5-0.8   c0-0.1,0-0.3-0.1-0.4c0-0.1-0.1-0.3-0.3-0.4c-0.1-0.1-0.3-0.2-0.6-0.4c-0.2-0.1-0.6-0.2-1-0.3c-1.1-0.3-2.1-0.6-3-0.9   c-0.8-0.3-1.5-0.6-2.1-0.9s-1.1-0.7-1.4-1c-0.4-0.4-0.6-0.8-0.8-1.2c-0.2-0.4-0.3-0.8-0.4-1.3c-0.1-0.5-0.1-0.9-0.1-1.5   c0-0.7,0.1-1.4,0.3-2.1c0.2-0.6,0.5-1.2,0.8-1.7c0.4-0.5,0.8-1,1.3-1.4c0.5-0.4,1.1-0.8,1.7-1s1.3-0.5,2-0.6   c0.7-0.1,1.4-0.2,2.2-0.2c0.6,0,1.3,0,1.9,0.1c0.6,0,1.3,0.1,1.9,0.3c0.6,0.1,1.3,0.3,2,0.5c0.7,0.2,1.4,0.5,2.1,0.8l-1.7,5   c-0.4-0.2-0.9-0.4-1.4-0.5c-0.5-0.2-1.1-0.3-1.6-0.4c-0.5-0.1-1.1-0.2-1.6-0.3c-0.5-0.1-0.9-0.1-1.2-0.1c-0.6,0-1,0.1-1.3,0.3   c-0.3,0.2-0.4,0.5-0.4,0.8c0,0.2,0,0.4,0.1,0.5s0.2,0.3,0.4,0.4c0.2,0.1,0.5,0.3,0.9,0.4c0.4,0.1,1,0.3,1.6,0.5   c1.2,0.3,2.3,0.7,3.1,1.1c0.8,0.4,1.5,0.8,2,1.3c0.5,0.5,0.8,1,1,1.6C204.4,83.8,204.5,84.5,204.5,85.3"/>
	<polygon clip-path="url(#SVGID_2_)" fill="#FFFFFF" points="239.7,67.7 231.9,67.7 231.9,92 224.5,92 224.5,67.7 216.3,67.7    216.7,62.1 240.1,62.1  "/>
	<path clip-path="url(#SVGID_2_)" fill="#FFFFFF" d="M254.5,91c-0.7,0.3-1.4,0.5-2.2,0.7c-0.8,0.2-1.6,0.3-2.4,0.5   c-0.8,0.1-1.7,0.2-2.6,0.2c-1.7,0-3.1-0.2-4.4-0.6c-1.3-0.4-2.3-1-3.1-1.8c-0.8-0.8-1.5-1.8-1.9-3.1c-0.4-1.2-0.6-2.7-0.6-4.5   c0-1.9,0.2-3.6,0.8-5c0.5-1.4,1.2-2.6,2.1-3.6c0.9-1,2-1.7,3.3-2.1c1.3-0.5,2.8-0.7,4.4-0.7c1.4,0,2.7,0.2,3.7,0.7   c1,0.4,1.9,1.1,2.5,1.9c0.7,0.8,1.2,1.9,1.5,3.1c0.3,1.2,0.5,2.6,0.5,4.1c0,0.1,0,0.3,0,0.6c0,0.2,0,0.5,0,0.8c0,0.3,0,0.6-0.1,0.9   c0,0.3-0.1,0.6-0.1,0.8h-11.3c0.2,1.1,0.6,2,1.2,2.5c0.7,0.5,1.6,0.8,2.8,0.8c0.6,0,1.1,0,1.7-0.1s1.1-0.2,1.7-0.3   c0.5-0.1,1.1-0.3,1.6-0.5c0.5-0.2,1-0.4,1.5-0.6l1.4,4.4C255.8,90.4,255.2,90.7,254.5,91 M249.9,79.6c0-1.2-0.2-2-0.6-2.6   c-0.4-0.6-1-0.9-1.7-0.9c-1,0-1.7,0.3-2.2,0.9c-0.5,0.6-0.8,1.5-0.8,2.8h5.4V79.6z"/>
	<path clip-path="url(#SVGID_2_)" fill="#FFFFFF" d="M273.2,77.7c-0.4,0-0.8-0.1-1.1-0.1c-0.3,0-0.6-0.1-0.9-0.1c-0.4,0-0.7,0-1,0.1   c-0.3,0.1-0.5,0.2-0.8,0.3c-0.2,0.2-0.5,0.4-0.8,0.6c-0.3,0.3-0.6,0.6-0.9,1V92h-7.2V71.4l5.7-0.3c0.1,0.2,0.1,0.4,0.2,0.6   c0.1,0.3,0.1,0.6,0.2,0.9s0.1,0.7,0.2,1c0,0.3,0.1,0.7,0.1,1c0.4-0.7,0.7-1.3,1-1.8c0.3-0.5,0.7-0.8,1-1.1c0.3-0.3,0.7-0.4,1-0.5   c0.4-0.1,0.8-0.1,1.2-0.1c0.5,0,1,0,1.4,0.1c0.5,0.1,0.9,0.2,1.4,0.3L273.2,77.7z"/>
	<path clip-path="url(#SVGID_2_)" fill="#FFFFFF" d="M289.5,77.7c-0.4,0-0.8-0.1-1.1-0.1c-0.3,0-0.6-0.1-0.9-0.1c-0.4,0-0.7,0-1,0.1   c-0.3,0.1-0.5,0.2-0.8,0.3c-0.2,0.2-0.5,0.4-0.8,0.6c-0.3,0.3-0.6,0.6-0.9,1V92h-7.2V71.4l5.7-0.3c0.1,0.2,0.1,0.4,0.2,0.6   c0.1,0.3,0.1,0.6,0.2,0.9c0.1,0.3,0.1,0.7,0.2,1c0,0.3,0.1,0.7,0.1,1c0.4-0.7,0.7-1.3,1-1.8c0.3-0.5,0.7-0.8,1-1.1   c0.3-0.3,0.7-0.4,1-0.5c0.4-0.1,0.8-0.1,1.2-0.1c0.5,0,1,0,1.4,0.1c0.5,0.1,0.9,0.2,1.4,0.3L289.5,77.7z"/>
	<path clip-path="url(#SVGID_2_)" fill="#FFFFFF" d="M303.8,89.8c-0.4,0.5-0.8,0.8-1.3,1.2c-0.4,0.3-0.9,0.6-1.3,0.8   c-0.5,0.2-1,0.3-1.5,0.4c-0.5,0.1-1.1,0.1-1.7,0.1c-0.8,0-1.6-0.1-2.3-0.5c-0.7-0.3-1.4-0.7-1.9-1.3c-0.5-0.6-1-1.2-1.3-2   s-0.5-1.7-0.5-2.7c0-0.5,0.1-1,0.2-1.4c0.1-0.4,0.3-0.9,0.6-1.3c0.3-0.4,0.7-0.7,1.3-1.1c0.5-0.3,1.2-0.6,2.1-0.9   c0.9-0.3,1.9-0.5,3.1-0.7c1.2-0.2,2.6-0.4,4.3-0.5v-2c0-0.3,0-0.6-0.1-0.8c0-0.2-0.1-0.4-0.2-0.5c-0.1-0.1-0.3-0.2-0.4-0.3   c-0.2-0.1-0.4-0.1-0.7-0.1c-0.5,0-1.1,0.1-1.7,0.2c-0.6,0.1-1.1,0.3-1.7,0.5c-0.6,0.2-1.1,0.4-1.7,0.7c-0.6,0.3-1.1,0.6-1.6,1   l-2.7-4.3c0.8-0.6,1.6-1.1,2.4-1.5c0.8-0.4,1.7-0.8,2.6-1.1c0.9-0.3,1.9-0.5,2.9-0.6c1-0.1,2.1-0.2,3.2-0.2c1.3,0,2.4,0.2,3.3,0.5   c0.9,0.3,1.6,0.7,2.1,1.3c0.5,0.6,0.9,1.3,1.2,2.1c0.2,0.8,0.4,1.7,0.4,2.7V86c0,0.1,0,0.2,0.1,0.3c0.1,0.1,0.2,0.2,0.3,0.2   s0.4,0.1,0.7,0.2c0.3,0.1,0.7,0.1,1.1,0.2l-1.2,5.1c-0.4,0-0.7,0-1.1,0c-0.3,0-0.7,0-1,0c-1,0-1.8-0.1-2.5-0.2   c-0.7-0.1-1.3-0.3-1.7-0.5c-0.5-0.2-0.8-0.4-1.1-0.7C304.2,90.6,303.9,90.2,303.8,89.8 M301.6,83.7c-0.5,0.1-0.9,0.2-1.3,0.2   c-0.4,0.1-0.6,0.2-0.8,0.3c-0.2,0.1-0.4,0.2-0.5,0.4c-0.1,0.1-0.2,0.3-0.2,0.4c0,0.2,0,0.3,0,0.5c0,0.3,0,0.6,0.1,0.9   c0.1,0.3,0.2,0.5,0.4,0.7c0.2,0.2,0.4,0.3,0.6,0.4c0.2,0.1,0.5,0.2,0.8,0.2c0.3,0,0.6,0,0.9-0.1c0.3-0.1,0.5-0.1,0.8-0.2   c0.2-0.1,0.5-0.2,0.6-0.4c0.2-0.1,0.4-0.3,0.5-0.4v-3.1C302.7,83.6,302.1,83.7,301.6,83.7"/>
	<path clip-path="url(#SVGID_2_)" fill="#FFFFFF" d="M332.5,91c-0.7,0.3-1.4,0.5-2.2,0.7c-0.8,0.2-1.6,0.3-2.4,0.5   c-0.8,0.1-1.7,0.2-2.6,0.2c-1.7,0-3.1-0.2-4.4-0.6c-1.3-0.4-2.3-1-3.1-1.8c-0.8-0.8-1.5-1.8-1.9-3.1c-0.4-1.2-0.6-2.7-0.6-4.5   c0-1.9,0.3-3.6,0.8-5c0.5-1.4,1.2-2.6,2.1-3.6c0.9-1,2-1.7,3.3-2.1c1.3-0.5,2.8-0.7,4.4-0.7c1.4,0,2.7,0.2,3.7,0.7   c1,0.4,1.9,1.1,2.5,1.9c0.7,0.8,1.2,1.9,1.5,3.1c0.3,1.2,0.5,2.6,0.5,4.1c0,0.1,0,0.3,0,0.6c0,0.2,0,0.5,0,0.8c0,0.3,0,0.6-0.1,0.9   c0,0.3-0.1,0.6-0.1,0.8h-11.3c0.2,1.1,0.6,2,1.2,2.5c0.7,0.5,1.6,0.8,2.8,0.8c0.6,0,1.1,0,1.7-0.1c0.6-0.1,1.1-0.2,1.7-0.3   c0.5-0.1,1.1-0.3,1.6-0.5c0.5-0.2,1-0.4,1.5-0.6l1.4,4.4C333.9,90.4,333.2,90.7,332.5,91 M327.9,79.6c0-1.2-0.2-2-0.6-2.6   c-0.4-0.6-1-0.9-1.7-0.9c-1,0-1.7,0.3-2.2,0.9c-0.5,0.6-0.8,1.5-0.8,2.8h5.4V79.6z"/>
	<path clip-path="url(#SVGID_2_)" fill="#FFFFFF" d="M125.7,50.9c-0.2,0.5-0.5,1-0.8,1.4s-0.8,0.7-1.4,0.9c-0.6,0.2-1.2,0.3-2,0.3   c-0.8,0-1.4-0.1-1.9-0.3c-0.5-0.2-1-0.4-1.3-0.8c-0.3-0.4-0.6-0.8-0.7-1.3c-0.2-0.5-0.2-1.2-0.2-1.9v-6.8h2v6.8   c0,0.5,0,0.9,0.1,1.2c0.1,0.3,0.2,0.6,0.4,0.8c0.2,0.2,0.4,0.4,0.7,0.5c0.3,0.1,0.7,0.2,1.1,0.2c0.5,0,0.9-0.1,1.2-0.2   c0.3-0.1,0.6-0.3,0.8-0.5c0.2-0.2,0.3-0.5,0.4-0.9s0.1-0.8,0.1-1.2v-6.7h1.9v6.7C125.9,49.7,125.8,50.4,125.7,50.9"/>
	<path clip-path="url(#SVGID_2_)" fill="#FFFFFF" d="M137.6,53.4l-5.1-7c-0.1-0.1-0.2-0.3-0.2-0.4c-0.1-0.1-0.1-0.2-0.1-0.3v7.7   h-1.9v-11h1.8l5.1,7.2c0.1,0.2,0.2,0.3,0.3,0.4c0.1,0.1,0.1,0.2,0.1,0.3v-7.9h1.9v11H137.6z"/>
	<polygon clip-path="url(#SVGID_2_)" fill="#FFFFFF" points="148.6,43.8 147.1,43.9 147.1,52 148.7,52.1 148.7,53.4 143.5,53.4    143.5,52.1 145.1,52 145.1,43.9 143.6,43.8 143.6,42.4 148.6,42.4  "/>
	<path clip-path="url(#SVGID_2_)" fill="#FFFFFF" d="M159.3,42.4h1.9l-4.1,11h-1.9l-3.7-11h2.3l2.4,7.8c0,0.1,0.1,0.3,0.1,0.4   c0,0.2,0,0.3,0,0.4c0-0.1,0-0.2,0-0.4c0-0.2,0.1-0.3,0.1-0.4L159.3,42.4z"/>
	<polygon clip-path="url(#SVGID_2_)" fill="#FFFFFF" points="164.5,53.4 164.5,42.4 171.4,42.4 171.2,44 166.5,44 166.5,47    170.7,47 170.7,48.5 166.5,48.5 166.5,51.9 171.3,51.9 171.4,53.4  "/>
	<path clip-path="url(#SVGID_2_)" fill="#FFFFFF" d="M181,53.4l-2.1-4.2h-1.6v4.2h-2v-11h3.4c0.7,0,1.2,0.1,1.7,0.2   c0.5,0.1,0.9,0.3,1.2,0.6s0.5,0.6,0.7,1c0.1,0.4,0.2,0.8,0.2,1.3c0,0.3,0,0.5-0.1,0.8c-0.1,0.3-0.2,0.5-0.3,0.8   c-0.1,0.3-0.3,0.5-0.6,0.8s-0.5,0.6-0.8,0.9l2.5,4.7H181z M180.6,45.6c0-0.3,0-0.5-0.1-0.7c-0.1-0.2-0.2-0.4-0.4-0.5   c-0.2-0.1-0.4-0.2-0.6-0.3c-0.3-0.1-0.6-0.1-0.9-0.1h-1.2v3.9h2.2c0.2-0.2,0.3-0.4,0.5-0.6c0.1-0.2,0.2-0.4,0.3-0.6   c0.1-0.2,0.1-0.4,0.2-0.5C180.6,45.9,180.6,45.8,180.6,45.6"/>
	<path clip-path="url(#SVGID_2_)" fill="#FFFFFF" d="M193.8,50.2c0,0.5-0.1,0.9-0.3,1.3c-0.2,0.4-0.4,0.8-0.8,1.1   c-0.3,0.3-0.8,0.5-1.3,0.7c-0.5,0.2-1.1,0.3-1.8,0.3c-0.3,0-0.6,0-0.9,0c-0.3,0-0.6-0.1-0.9-0.1s-0.5-0.1-0.8-0.2   c-0.3-0.1-0.5-0.2-0.8-0.3l0.5-1.7c0.2,0.1,0.5,0.2,0.7,0.3c0.3,0.1,0.5,0.2,0.8,0.2c0.3,0.1,0.5,0.1,0.8,0.1c0.3,0,0.5,0,0.8,0   c0.3,0,0.6,0,0.8-0.1c0.2-0.1,0.4-0.2,0.6-0.3c0.2-0.1,0.3-0.3,0.4-0.4c0.1-0.2,0.1-0.3,0.1-0.5c0-0.2,0-0.4-0.1-0.5   c-0.1-0.2-0.2-0.3-0.3-0.4c-0.1-0.1-0.4-0.2-0.6-0.4c-0.3-0.1-0.6-0.2-1-0.4c-0.4-0.1-0.7-0.2-1-0.3s-0.6-0.2-0.8-0.4   c-0.2-0.1-0.4-0.3-0.6-0.4c-0.2-0.2-0.3-0.3-0.4-0.5c-0.1-0.2-0.2-0.4-0.2-0.7c-0.1-0.3-0.1-0.5-0.1-0.9c0-0.5,0.1-0.9,0.2-1.3   c0.2-0.4,0.4-0.8,0.7-1.1c0.3-0.3,0.7-0.5,1.2-0.7c0.5-0.2,1-0.3,1.6-0.3c0.6,0,1.2,0.1,1.8,0.2c0.5,0.1,1,0.3,1.4,0.5l-0.5,1.5   c-0.2-0.1-0.4-0.2-0.6-0.2c-0.2-0.1-0.5-0.1-0.7-0.2c-0.2,0-0.5-0.1-0.7-0.1c-0.2,0-0.4,0-0.6,0c-0.3,0-0.6,0-0.8,0.1   c-0.2,0.1-0.4,0.1-0.6,0.3c-0.1,0.1-0.3,0.3-0.3,0.4c-0.1,0.2-0.1,0.4-0.1,0.6c0,0.2,0,0.4,0.1,0.5c0,0.2,0.1,0.3,0.3,0.4   c0.1,0.1,0.3,0.2,0.5,0.4s0.5,0.2,0.9,0.3c0.5,0.1,0.9,0.3,1.2,0.4c0.3,0.1,0.6,0.3,0.9,0.4c0.2,0.1,0.4,0.3,0.6,0.5   c0.2,0.2,0.3,0.3,0.4,0.5c0.1,0.2,0.2,0.4,0.2,0.6C193.7,49.7,193.8,49.9,193.8,50.2"/>
	<polygon clip-path="url(#SVGID_2_)" fill="#FFFFFF" points="202.6,43.8 201.1,43.9 201.1,52 202.7,52.1 202.7,53.4 197.5,53.4    197.5,52.1 199.1,52 199.1,43.9 197.6,43.8 197.6,42.4 202.6,42.4  "/>
	<path clip-path="url(#SVGID_2_)" fill="#FFFFFF" d="M215.4,47.7c0,0.9-0.1,1.7-0.3,2.5c-0.2,0.7-0.6,1.3-1,1.8s-1,0.9-1.7,1.1   c-0.7,0.3-1.4,0.4-2.3,0.4h-3.4v-11h3.7c0.5,0,1,0,1.5,0.1c0.5,0.1,0.9,0.2,1.2,0.4c0.4,0.2,0.7,0.4,1,0.7c0.3,0.3,0.5,0.6,0.7,1   c0.2,0.4,0.3,0.8,0.4,1.4C215.4,46.4,215.4,47,215.4,47.7 M208.7,44v7.9h1.5c0.6,0,1-0.1,1.4-0.3c0.4-0.2,0.7-0.4,1-0.8   c0.3-0.3,0.5-0.8,0.6-1.3c0.1-0.5,0.2-1.1,0.2-1.8c0-0.7-0.1-1.2-0.2-1.7c-0.1-0.5-0.3-0.9-0.6-1.2c-0.3-0.3-0.6-0.6-1-0.7   c-0.4-0.2-0.9-0.2-1.5-0.2H208.7z"/>
	<path clip-path="url(#SVGID_2_)" fill="#FFFFFF" d="M226.1,53.4l-1-2.9h-3.7l-1.1,2.9h-2l4-11h1.9l3.9,11H226.1z M221.8,49.1h2.8   l-1.2-3.7c-0.1-0.2-0.1-0.3-0.1-0.5c0-0.1,0-0.3,0-0.4c0,0.1,0,0.2,0,0.4c0,0.2-0.1,0.3-0.1,0.5L221.8,49.1z"/>
	<path clip-path="url(#SVGID_2_)" fill="#FFFFFF" d="M240.4,47.7c0,0.9-0.1,1.7-0.3,2.5c-0.2,0.7-0.6,1.3-1,1.8   c-0.4,0.5-1,0.9-1.7,1.1c-0.7,0.3-1.4,0.4-2.3,0.4h-3.4v-11h3.7c0.5,0,1,0,1.5,0.1c0.5,0.1,0.9,0.2,1.2,0.4c0.4,0.2,0.7,0.4,1,0.7   c0.3,0.3,0.5,0.6,0.7,1c0.2,0.4,0.3,0.8,0.4,1.4C240.3,46.4,240.4,47,240.4,47.7 M233.6,44v7.9h1.5c0.6,0,1-0.1,1.4-0.3   c0.4-0.2,0.7-0.4,1-0.8c0.3-0.3,0.5-0.8,0.6-1.3c0.1-0.5,0.2-1.1,0.2-1.8c0-0.7-0.1-1.2-0.2-1.7c-0.1-0.5-0.3-0.9-0.6-1.2   c-0.3-0.3-0.6-0.6-1-0.7c-0.4-0.2-0.9-0.2-1.5-0.2H233.6z"/>
	<path clip-path="url(#SVGID_2_)" fill="#FFFFFF" d="M58.3,7.3C32.1,7.3,10.7,31.8,10.7,62c0,30.2,21.4,54.7,47.6,54.7   s47.6-24.5,47.6-54.7C105.9,31.8,84.6,7.3,58.3,7.3 M58.3,115.9c-25.8,0-46.8-24.2-46.8-53.9c0-29.7,21-53.9,46.8-53.9   s46.8,24.2,46.8,53.9C105.1,91.7,84.1,115.9,58.3,115.9"/>
	<path clip-path="url(#SVGID_2_)" fill="#FFFFFF" d="M20.1,83.8c-0.3-0.6,0-1.4,0.7-1.7c0.6-0.3,1.4,0,1.7,0.7   c0.3,0.6,0,1.4-0.6,1.7C21.2,84.7,20.4,84.4,20.1,83.8"/>
	<polygon clip-path="url(#SVGID_2_)" fill="#FFFFFF" points="22.5,91 22.1,90.4 24.4,87.3 24.3,86.8 24.5,86.7 25.6,88.6 25.4,88.7    25,88.3 23.2,90.5 25.8,90 25.8,89.4 26,89.2 26.9,90.6 26.6,90.8 26.1,90.5  "/>
	<polygon clip-path="url(#SVGID_2_)" fill="#FFFFFF" points="25.6,95.1 25.4,95.2 24.1,93.4 24.3,93.3 24.7,93.7 27.3,91.8 27,91.3    27.2,91.1 28.6,93 28.4,93.1 27.9,92.7 25.4,94.5  "/>
	<polygon clip-path="url(#SVGID_2_)" fill="#FFFFFF" points="29.1,94.5 28.9,93.9 29.1,93.8 30.3,95 30,95.8 29.4,98.1 29.4,98.2    31.1,96.7 30.9,96.1 31.1,96 32.1,97.2 32,97.4 31.4,97.1 28.8,99.4 28.2,98.7 28.4,97.8 29.1,95.3 29,95.2 27.2,96.8 27.4,97.4    27.2,97.5 26.2,96.3 26.3,96.2 26.9,96.4  "/>
	<path clip-path="url(#SVGID_2_)" fill="#FFFFFF" d="M32.9,103c-0.4-0.1-0.9-0.4-1.2-0.7c-1-0.9-1.2-2-0.3-3c0.9-0.9,2.1-1,3.1-0.1   c0.3,0.2,0.5,0.6,0.6,0.8l0.3,0l0.2,0.2l-1,1.2l-0.3-0.2c0.3-1,0.2-1.4-0.1-1.7c-0.4-0.4-1.1-0.3-1.9,0.5c-0.8,0.9-0.7,1.7-0.2,2.1   c0.1,0.1,0.2,0.2,0.4,0.2l1.2-0.4l0.2,0.2L32.9,103z"/>
	<path clip-path="url(#SVGID_2_)" fill="#FFFFFF" d="M38.5,104.1l-0.2-0.1l0-0.7c0-0.3-0.1-0.5-0.4-0.8l-0.5-0.4l-0.8,1.1l0.2,0.1   c0.3,0.2,0.5,0.2,0.8,0l0.1-0.1l0.2,0.1l-0.9,1.3l-0.2-0.1l0-0.2c0.1-0.3,0-0.6-0.3-0.8l-0.2-0.1l-0.8,1.2l0.7,0.5   c0.3,0.2,0.5,0.2,0.8,0.1l0.8-0.2l0.2,0.2l-0.9,1l-3-2.2l0.1-0.2l0.6,0.2l1.8-2.5l-0.4-0.5l0.1-0.2l2.9,2.1L38.5,104.1z"/>
	<polygon clip-path="url(#SVGID_2_)" fill="#FFFFFF" points="42.3,108.9 42.2,109.1 40.2,108.1 40.3,107.9 40.9,108 42.3,105.2    41.8,104.8 41.9,104.6 43.9,105.6 43.8,105.8 43.2,105.7 41.8,108.5  "/>
	<polygon clip-path="url(#SVGID_2_)" fill="#FFFFFF" points="45.1,106.7 44.7,106.3 44.8,106.1 46.4,106.6 46.6,107.4 47.1,109.8    47.2,109.8 47.9,107.7 47.5,107.3 47.6,107 49.1,107.6 49,107.8 48.4,107.9 47.3,111.1 46.3,110.8 46.1,109.9 45.5,107.4    45.4,107.3 44.6,109.6 45.1,110.1 45,110.3 43.5,109.7 43.5,109.5 44.1,109.5  "/>
	<path clip-path="url(#SVGID_2_)" fill="#FFFFFF" d="M53.8,112.4l-2.4-0.3l0-0.2l0.6-0.1l0.4-3.1l-0.5-0.2l0-0.2l2.3,0.3   c1,0.1,1.3,0.6,1.3,1.1c-0.1,0.5-0.5,0.7-1.2,0.8l0,0.1c0.8,0.2,1.2,0.5,1.1,1.1C55.2,112.2,54.6,112.5,53.8,112.4 M53.5,110.5   l-0.3,0l-0.2,1.5c0.1,0,0.2,0.1,0.3,0.1c0.5,0.1,0.8-0.1,0.9-0.6C54.3,110.9,54,110.6,53.5,110.5 M53.5,110.2   c0.5,0.1,0.8-0.2,0.8-0.6c0.1-0.5-0.2-0.7-0.7-0.8c-0.1,0-0.3,0-0.3,0l-0.2,1.3L53.5,110.2z"/>
	<path clip-path="url(#SVGID_2_)" fill="#FFFFFF" d="M58.8,112.8c-1.5,0-2.1-0.9-2.1-2c0-1.1,0.7-2.1,2.1-2.1c1.5,0,2.1,0.9,2.1,2   C60.9,111.8,60.2,112.8,58.8,112.8 M58.6,109c-0.5,0-0.9,0.5-0.9,1.7c0,1.3,0.5,1.7,1,1.7c0.5,0,0.9-0.6,0.9-1.7   C59.7,109.5,59.2,109,58.6,109"/>
	<polygon clip-path="url(#SVGID_2_)" fill="#FFFFFF" points="62.3,109 61.8,108.9 61.7,108.7 63.4,108.4 63.9,108.9 65.6,110.7    65.6,110.7 65.3,108.5 64.7,108.4 64.6,108.1 66.2,107.9 66.3,108.1 65.8,108.4 66.4,111.8 65.4,112 64.8,111.4 63,109.4    62.9,109.5 63.3,111.8 63.9,112 64,112.2 62.4,112.5 62.3,112.3 62.8,111.9  "/>
	<path clip-path="url(#SVGID_2_)" fill="#FFFFFF" d="M70.2,110.8c-1.4,0.5-2.3-0.3-2.7-1.3c-0.3-1,0-2.2,1.4-2.6   c1.4-0.5,2.3,0.3,2.6,1.3C71.9,109.2,71.5,110.4,70.2,110.8 M69,107.2c-0.5,0.2-0.7,0.7-0.3,1.9c0.4,1.2,1,1.5,1.5,1.3   c0.5-0.2,0.7-0.8,0.3-1.9C70.1,107.4,69.5,107,69,107.2"/>
	<polygon clip-path="url(#SVGID_2_)" fill="#FFFFFF" points="80.5,105.3 80.6,105.5 78.9,106.5 78.7,106.3 79,106 77.5,103.5    77.4,103.5 78.2,106.9 77.6,107.3 74.9,105.1 74.8,105.1 76.3,107.6 76.9,107.5 77,107.7 75.6,108.5 75.5,108.3 75.9,107.8    74.3,105.2 73.7,105.4 73.6,105.1 75.4,104.1 75.9,104.5 77.5,105.9 77.6,105.9 77,103.8 76.9,103.2 78.6,102.1 78.7,102.3    78.3,102.8 79.9,105.4  "/>
	<path clip-path="url(#SVGID_2_)" fill="#FFFFFF" d="M82,103.8l0.5-0.1l0.1,0.2l-1.2,1l-0.1-0.2l0.2-0.5l-1.2-3.5l0.7-0.6l3.3,1.9   l0.5-0.1l0.1,0.2l-1.6,1.3l-0.1-0.2l0.3-0.5l-0.7-0.4l-1.1,0.9L82,103.8z M81.1,101.2L81.1,101.2l0.5,1.6l0.9-0.7L81.1,101.2z"/>
	<path clip-path="url(#SVGID_2_)" fill="#FFFFFF" d="M88.1,98.7l-2.4,2.5l-0.2-0.2l0.3-0.5l-2.2-2.2l-0.5,0.3l-0.2-0.2l1.5-1.6   l0.2,0.2l-0.3,0.5l2.2,2.2l0.3-0.3c0.2-0.3,0.3-0.5,0.2-0.9L87,97.7l0.2-0.1L88.1,98.7z"/>
	<polygon clip-path="url(#SVGID_2_)" fill="#FFFFFF" points="90.3,96.1 89.9,96.7 86.2,95.6 85.7,95.9 85.6,95.8 86.9,94 87.1,94.2    86.9,94.7 89.6,95.6 88.2,93.4 87.6,93.6 87.4,93.4 88.5,92.1 88.7,92.3 88.5,92.9  "/>
	<polygon clip-path="url(#SVGID_2_)" fill="#FFFFFF" points="95,88.8 95.2,88.9 94.1,90.6 93.9,90.5 94,90 91.5,88.5 91.5,88.6    93.7,91.2 93.3,91.9 89.9,91.1 89.8,91.2 92.2,92.7 92.7,92.4 92.9,92.5 92.1,93.8 91.9,93.7 92,93.1 89.4,91.5 89,91.9 88.8,91.7    89.9,90 90.6,90.2 92.6,90.7 92.6,90.6 91.2,89 90.8,88.5 91.9,86.8 92.1,86.9 91.9,87.5 94.5,89.1  "/>
	<path clip-path="url(#SVGID_2_)" fill="#FFFFFF" d="M96.2,83.7c-0.3,0.6-1,0.9-1.7,0.7c-0.6-0.3-0.9-1-0.7-1.7   c0.3-0.6,1-0.9,1.7-0.7C96.2,82.3,96.5,83.1,96.2,83.7"/>
	<path clip-path="url(#SVGID_2_)" fill-rule="evenodd" clip-rule="evenodd" fill="#FFFFFF" d="M81.5,71.4H80v-0.9h-8.2v0.9h-1.5   c-0.1,0.3-0.2,0.8-0.6,1.2c-0.4,0.4-0.8,0.6-1.4,0.7c0,0.9,0.1,3.2,0.8,5.7c1,3.4,2.7,5.8,5.1,7.2c-5-3.6-5.1-12.4-5.1-12.4   c1.5,0,1.9-1.8,1.9-1.8h1.4v-0.8H76v0.6h0.8v3.4h3.6v1.6h-3.6v8.7H76v1.6c3.3-1.2,5.6-3.9,6.8-8c0.7-2.5,0.8-4.8,0.8-5.6   C82.1,73.1,81.7,72,81.5,71.4"/>
	<polygon clip-path="url(#SVGID_2_)" fill-rule="evenodd" clip-rule="evenodd" fill="#FFFFFF" points="74.5,74.5 71,74.5 71,77.3    74.5,77.3 74.5,85.1 75.3,85.1 75.3,76.7 71.6,76.7 71.6,75.1 75.3,75.1 75.3,71.8 74.5,71.8  "/>
	<path clip-path="url(#SVGID_2_)" fill-rule="evenodd" clip-rule="evenodd" fill="#FFFFFF" d="M33,31.5c-0.1,0.1-0.2,0.2-0.3,0.3   l4.2,1.1L33,31.5z"/>
	<path clip-path="url(#SVGID_2_)" fill-rule="evenodd" clip-rule="evenodd" fill="#FFFFFF" d="M31.9,32.9c-0.1,0.1-0.2,0.3-0.3,0.4   l5,1L31.9,32.9z"/>
	<path clip-path="url(#SVGID_2_)" fill-rule="evenodd" clip-rule="evenodd" fill="#FFFFFF" d="M30.7,34.4c-0.1,0.2-0.2,0.3-0.3,0.5   l5.8,0.8L30.7,34.4z"/>
	<path clip-path="url(#SVGID_2_)" fill-rule="evenodd" clip-rule="evenodd" fill="#FFFFFF" d="M34.2,30.2c-0.1,0.1-0.2,0.2-0.3,0.3   l3.5,1.2L34.2,30.2z"/>
	<path clip-path="url(#SVGID_2_)" fill-rule="evenodd" clip-rule="evenodd" fill="#FFFFFF" d="M29.6,36c-0.1,0.2-0.3,0.4-0.4,0.6   l6.7,0.5L29.6,36z"/>
	<path clip-path="url(#SVGID_2_)" fill-rule="evenodd" clip-rule="evenodd" fill="#FFFFFF" d="M36.6,27.9c-0.1,0.1-0.1,0.1-0.2,0.2   l2.2,1.1L36.6,27.9z"/>
	<path clip-path="url(#SVGID_2_)" fill-rule="evenodd" clip-rule="evenodd" fill="#FFFFFF" d="M22.9,53.2c-0.1,0.6-0.2,1.1-0.3,1.7   l14.7-6.7L22.9,53.2z"/>
	<path clip-path="url(#SVGID_2_)" fill-rule="evenodd" clip-rule="evenodd" fill="#FFFFFF" d="M24.1,48.1c-0.1,0.5-0.3,0.9-0.4,1.4   l12.8-3.9L24.1,48.1z"/>
	<path clip-path="url(#SVGID_2_)" fill-rule="evenodd" clip-rule="evenodd" fill="#FFFFFF" d="M23.5,50.6c-0.1,0.5-0.2,1-0.3,1.5   l13.8-5.2L23.5,50.6z"/>
	<path clip-path="url(#SVGID_2_)" fill-rule="evenodd" clip-rule="evenodd" fill="#FFFFFF" d="M22.5,56c-0.1,0.6-0.1,1.3-0.2,1.9   L38,49.6L22.5,56z"/>
	<path clip-path="url(#SVGID_2_)" fill-rule="evenodd" clip-rule="evenodd" fill="#FFFFFF" d="M24.9,45.8c-0.1,0.4-0.3,0.8-0.4,1.2   l11.7-2.8L24.9,45.8z"/>
	<path clip-path="url(#SVGID_2_)" fill-rule="evenodd" clip-rule="evenodd" fill="#FFFFFF" d="M27.6,39.6c-0.1,0.3-0.3,0.5-0.4,0.8   l8.6-0.4L27.6,39.6z"/>
	<path clip-path="url(#SVGID_2_)" fill-rule="evenodd" clip-rule="evenodd" fill="#FFFFFF" d="M26.6,41.5c-0.1,0.3-0.3,0.6-0.4,0.9   l9.7-1.1L26.6,41.5z"/>
	<path clip-path="url(#SVGID_2_)" fill-rule="evenodd" clip-rule="evenodd" fill="#FFFFFF" d="M25.7,43.6c-0.1,0.4-0.3,0.7-0.4,1.1   L36,42.8L25.7,43.6z"/>
	<path clip-path="url(#SVGID_2_)" fill-rule="evenodd" clip-rule="evenodd" fill="#FFFFFF" d="M28.6,37.8c-0.1,0.2-0.3,0.5-0.4,0.7   l7.7,0.1L28.6,37.8z"/>
	<path clip-path="url(#SVGID_2_)" fill-rule="evenodd" clip-rule="evenodd" fill="#FFFFFF" d="M88.4,38.4c-0.1-0.2-0.3-0.5-0.4-0.7   l-7.2,0.8L88.4,38.4z"/>
	<path clip-path="url(#SVGID_2_)" fill-rule="evenodd" clip-rule="evenodd" fill="#FFFFFF" d="M86.2,34.9c-0.1-0.2-0.2-0.3-0.3-0.5   l-5.4,1.3L86.2,34.9z"/>
	<path clip-path="url(#SVGID_2_)" fill-rule="evenodd" clip-rule="evenodd" fill="#FFFFFF" d="M87.3,36.6c-0.1-0.2-0.2-0.4-0.4-0.6   l-6.3,1.1L87.3,36.6z"/>
	<path clip-path="url(#SVGID_2_)" fill-rule="evenodd" clip-rule="evenodd" fill="#FFFFFF" d="M85.1,33.4c-0.1-0.1-0.2-0.3-0.3-0.4   l-4.6,1.4L85.1,33.4z"/>
	<path clip-path="url(#SVGID_2_)" fill-rule="evenodd" clip-rule="evenodd" fill="#FFFFFF" d="M83.9,31.9c-0.1-0.1-0.2-0.2-0.3-0.3   L79.7,33L83.9,31.9z"/>
	<path clip-path="url(#SVGID_2_)" fill-rule="evenodd" clip-rule="evenodd" fill="#FFFFFF" d="M35.4,29c-0.1,0.1-0.1,0.1-0.2,0.2   l2.8,1.2L35.4,29z"/>
	<path clip-path="url(#SVGID_2_)" fill-rule="evenodd" clip-rule="evenodd" fill="#FFFFFF" d="M81.5,29.2c-0.1-0.1-0.1-0.1-0.2-0.2   l-2.6,1.4L81.5,29.2z"/>
	<path clip-path="url(#SVGID_2_)" fill-rule="evenodd" clip-rule="evenodd" fill="#FFFFFF" d="M22.2,58.8c0,0.7-0.1,1.4-0.1,2.1   l16.5-10.1L22.2,58.8z"/>
	<path clip-path="url(#SVGID_2_)" fill-rule="evenodd" clip-rule="evenodd" fill="#FFFFFF" d="M82.7,30.5c-0.1-0.1-0.2-0.2-0.2-0.3   l-3.2,1.4L82.7,30.5z"/>
	<path clip-path="url(#SVGID_2_)" fill-rule="evenodd" clip-rule="evenodd" fill="#FFFFFF" d="M80.2,28.1C80.2,28,80.1,28,80,27.9   l-2,1.2L80.2,28.1z"/>
	<path clip-path="url(#SVGID_2_)" fill-rule="evenodd" clip-rule="evenodd" fill="#FFFFFF" d="M94.5,60.9c0-0.7-0.1-1.4-0.1-2.1   l-16.3-8L94.5,60.9z"/>
	<path clip-path="url(#SVGID_2_)" fill-rule="evenodd" clip-rule="evenodd" fill="#FFFFFF" d="M90.4,42.5c-0.1-0.3-0.3-0.6-0.4-0.9   l-9.2-0.1L90.4,42.5z"/>
	<path clip-path="url(#SVGID_2_)" fill-rule="evenodd" clip-rule="evenodd" fill="#FFFFFF" d="M91.3,44.7c-0.1-0.4-0.3-0.7-0.4-1.1   l-10.2-0.8L91.3,44.7z"/>
	<path clip-path="url(#SVGID_2_)" fill-rule="evenodd" clip-rule="evenodd" fill="#FFFFFF" d="M92.1,47c-0.1-0.4-0.3-0.8-0.4-1.2   l-11.3-1.6L92.1,47z"/>
	<path clip-path="url(#SVGID_2_)" fill-rule="evenodd" clip-rule="evenodd" fill="#FFFFFF" d="M89.5,40.4c-0.1-0.3-0.3-0.5-0.4-0.8   L80.8,40L89.5,40.4z"/>
	<path clip-path="url(#SVGID_2_)" fill-rule="evenodd" clip-rule="evenodd" fill="#FFFFFF" d="M94.3,57.8c-0.1-0.6-0.1-1.3-0.2-1.9   l-15.4-6.4L94.3,57.8z"/>
	<path clip-path="url(#SVGID_2_)" fill-rule="evenodd" clip-rule="evenodd" fill="#FFFFFF" d="M94,54.9c-0.1-0.6-0.2-1.1-0.3-1.7   l-14.4-4.9L94,54.9z"/>
	<path clip-path="url(#SVGID_2_)" fill-rule="evenodd" clip-rule="evenodd" fill="#FFFFFF" d="M93.5,52.1c-0.1-0.5-0.2-1-0.3-1.5   l-13.4-3.7L93.5,52.1z"/>
	<path clip-path="url(#SVGID_2_)" fill-rule="evenodd" clip-rule="evenodd" fill="#FFFFFF" d="M92.9,49.5c-0.1-0.5-0.2-0.9-0.4-1.4   l-12.4-2.6L92.9,49.5z"/>
	<path clip-path="url(#SVGID_2_)" fill-rule="evenodd" clip-rule="evenodd" fill="#FFFFFF" d="M94.5,61.8L77.3,52l14.5,10.2h-1.5   l-13.8-9l11.3,9h-1.6l-10.6-7.9l8.7,7.9l-1.6,0l-8-6.9l6.6,6.9h-1.6l-6-5.9l5,5.9h-1.6l-4.5-4.9l3.7,4.9h-1.6l-3.2-4.1l2.7,4.1   h-1.5L70.4,59l1.9,3.3h-1.5l-1.6-2.5l1.2,2.5h-1.5l-1-1.9l0.8,1.9h-0.6l-8-8c-0.1-4.3-0.2-9.4-0.2-9.4s0-0.1,0.1-0.1   c0.2-0.3,0.5-1,0.9-1.1c0.3-0.1,0.2-0.1,0.5-0.2c0.4-0.1,1.1,0,1.5,0.2c0.2,0.1,0.8,0,0.8-0.1c-0.1-0.2-0.5-0.1-0.6-0.1   c-0.1,0-0.5-0.1-0.6-0.2c0,0-0.1,0-0.1-0.1c0.3,0,0.7-0.1,1-0.1c0.4,0.1,0.6,0,1,0.1c0,0,0.2,0,0.2,0c0.3,0,0.3,0.1,0.5,0.3   c0.3,0.2,0.6,0.4,1,0.5c0.3,0.1,0.7,0.1,1,0.1c0.3,0,0.7,0.5,0.6,0.7c-0.1,0.3,0,0.5,0.1,0.7c0.1,0.1,0.1,0.2,0.1,0.3   c-0.1,0.5-0.1,0.9,0.3,1.3c0.2,0.2,0.8,0.7,0.8,0.7s0.1-1.3,0-1.6c-0.1-0.3-0.4-0.7-0.8-0.8c0,0-0.1,0-0.1-0.1   c-0.2-0.1-0.3-0.3-0.2-0.5c0-0.1,0-0.3-0.1-0.4c-0.1-0.2-0.2-0.3-0.3-0.4c0,0-0.1-0.1-0.1-0.1c0.3,0.1,0.7,0.2,0.9,0.4   c0.3,0.3,0.6,0.5,1,0.7c0.3,0.1,0.5,0.4,0.4,0.8c-0.1,0.4-0.1,0.6,0.1,1c0.2,0.3,0.8,1,0.9,1.1c0-0.1,0.2-0.9,0.2-1.1   c0.1-0.5-0.1-1-0.4-1.4c-0.1-0.1-0.3,0-0.5-0.2c-0.1,0-0.2-0.1-0.4-0.2c-0.3-0.2-0.7-0.4-0.9-0.8c0,0-0.1-0.1-0.1-0.1   c-0.3-0.2-0.7-0.4-1-0.5c-0.2-0.1-0.5-0.1-0.7-0.1c-0.4,0.1-0.9,0.1-1.2-0.2c-0.3-0.2-0.5-0.5-0.9-0.7c-0.1-0.1,0.2-0.2,0.3-0.2   c0.1,0,0.3-0.1,0.3-0.1c0.1-0.1,0.3-0.2,0.4-0.2c0.4-0.1,0.8-0.2,1.2-0.2c0.2,0,0.5-0.1,0.7-0.2c0.2-0.1,0.4-0.1,0.6-0.2   c0.2,0,0.2,0.1,0.2,0.2c0.3,0.7-0.1,0.7,0.1,1.5c0.2,0.7,1.1,0.9,1.1,1c0-0.2,0.2-1.2-0.4-1.7c-0.3-0.3-0.6-0.3-0.7-0.8   c0.4,0.1,0.9,0.2,1.1,0.6c0.3,0.4,0.5,0.7,0.7,1.2c0.1,0.1,0.1,0.4,0.1,0.5c0,0.4,0.2,0.8,0.5,0.9c0,0,0.2,0.1,0.2,0   c0-0.1-0.5-0.5-0.4-0.7c0-0.2,0.2,0,0.3,0.1c0.3,0.3,0.6,0.6,1,0.6c0.3,0,0.6,0.3,0.6,0.6c0,0.3-0.1,0.6,0,0.8c0.1,0.4,0,0.7-0.1,1   c-0.2,0.4-0.3,0.6-0.2,1.1c0.1,0.3,0.4,0.7,0.5,1c0.1-0.2,0.5-0.9,0.3-1.6c-0.1-0.3-0.4-0.4-0.4-0.5c0-0.1,0.1-0.4,0.1-0.6   c0.3,0.1,0.5,0.3,0.6,0.6c0.1,0.5,0.5,0.6,0.9,0.5c0.3-0.1,0.6,0,0.9,0.1c0.1,0,0.2,0.1,0.2,0.2c0,0.1,0,0.3,0,0.4   c0,0.6,0.3,0.9,0.8,1c0.2,0.1,0.9,0.3,0.9,0.3s0-0.1,0-0.2c0-0.2-0.1-0.5-0.1-0.7c-0.1-0.5-0.5-0.8-1-0.9c-0.2,0-0.3-0.1-0.5-0.2   c-0.1-0.1-0.3-0.2-0.4-0.2c-0.3,0-0.6,0-0.9,0c-0.1,0-0.2,0-0.2-0.1c0-0.4-0.2-0.7-0.5-0.9c-0.1-0.1-0.3-0.2-0.4-0.4   c0-0.1-0.1-0.2-0.1-0.2c0-0.3,0-0.7,0-1c0,0,0-0.1,0.1-0.1c0.3-0.1,0.6,0,0.9,0.1c0.3,0.1,0.5,0.4,0.7,0.5c0.2,0.1,0.3,0.3,0.5,0.4   c0,0,0.1,0,0.1,0.1c0.2,0.2,0.4,0.7,1,0.8c0.7,0.2,1.7,0,1.8,0c-0.2-0.1-0.8-1-1.3-1.2c-0.5-0.2-1.1,0-1.3,0.1   c-0.1,0-0.2,0.1-0.2,0.1c-0.3-0.1-0.6-0.4-0.6-0.6c0.2,0,0.4,0,0.5-0.1c0.2-0.2,0.4-0.2,0.7-0.2c0.2,0,0.4,0.1,0.6,0.1   c0,0,0.1,0,0.1,0c0.1,0,0.3,0,0.4,0c0.2,0,0.4,0.1,0.5,0.1c0-0.1,0-0.1,0-0.1c-0.3-0.1-0.6-0.3-1-0.3c-0.1,0-0.2,0-0.3,0   c-0.4,0-0.8-0.1-1.1,0.2c0,0-0.1,0.1-0.2,0c-0.4-0.1-0.7-0.2-1.1-0.3c-0.3-0.1-0.6-0.1-0.9-0.1c-0.3,0-0.7,0-1-0.1   c-0.3-0.1-0.5-0.3-0.7-0.5c-0.3-0.3-0.5-0.6-0.7-0.9c-0.2-0.3-0.4-0.7-0.7-1.1c0.1,0,0.1,0,0.2,0c0.4,0.2,0.8,0.4,1.3,0.5   c0.3,0.1,0.5,0.2,0.8,0c0.1-0.1,0.2-0.1,0.3-0.2c0.1,0,0.4,0,0.4,0c0.2,0.2,0,0.8,0.1,1.1c0.3,0.7,1,0.8,1,0.8s0.3-0.7,0-1.1   c-0.2-0.3-1-0.6-0.7-0.8c0.4-0.2,1.2,1.1,2.2,1c0.2,0,0.4-0.1,0.6,0.1c0.2,0.1,0.4,0.3,0.6,0.5c0.6,0.5,1.4,0.4,2,0.2   c-0.2-0.5-0.5-0.9-1-1.1c-0.2-0.1-0.6,0-0.8,0c-0.3,0.1-0.6,0.2-0.9,0.2c-0.7,0-1.1-0.1-1.5-0.6c-0.1-0.1-0.4-0.4-0.6-0.5   c-0.1-0.1-0.2-0.2-0.1-0.4c0-0.1,0.2-0.1,0.2-0.1c0.4-0.2,0.7-0.1,1,0.2c0.2,0.2,0.4,0.2,0.6,0.3c0.1,0,0.3-0.1,0.3-0.1   c0-0.1-0.9-0.3-1.2-0.7c0.3,0,0.6,0,0.9,0c0,0,0.3,0.1,0.3,0.1c0.3,0.3,0.6,0.2,0.9,0c0.1,0,0.2,0,0.3,0c0.8,0.6,1.4,0.4,2.2-0.2   c-0.1-0.1-0.2-0.1-0.3-0.2c-0.6-0.7-1.6-0.6-2.1,0.1c-0.2,0.2-0.6,0.4-0.8,0.2C76,41,75.7,41,75.4,41c-0.3,0-0.5,0-0.8,0   c-0.2,0-0.4,0-0.5,0.1c-0.3,0.1-0.5,0.3-0.8,0.4c-0.3,0.2-0.7,0.3-1.1,0.4c-0.1,0,0.2-0.5,0.4-0.8c0.1-0.2,0.2-0.5,0.5-0.7   c0.2-0.1,0.3-0.2,0.5-0.3c0.3-0.2,0.5-0.2,0.8-0.1c0.1,0.1,0.3,0.2,0.4,0.2c0.4,0.1,0.5,0.2,0.9,0.2c0.8,0,1.1-0.5,1.3-0.7   c-0.2-0.1-0.8-0.5-1.3-0.4c-0.3,0-0.5,0.2-0.7,0.4c-0.2,0.2-0.5,0.3-0.7,0.1c-0.1-0.1-0.2-0.1-0.3-0.1c-0.1,0-0.2,0-0.1-0.1   c0.1-0.1,0.2-0.1,0.3-0.2c0.1-0.2,0.3-0.4,0.4-0.5c0.1-0.1,0.2-0.3,0.4-0.4c0.5-0.3,1-0.2,1.6-0.1c0.4,0.1,0.7,0.2,1.1,0.2   c0.5,0,1-0.8,1.3-1c-0.3-0.2-1.2-0.3-1.5-0.3c-0.7,0.1-0.9,0.4-1,0.8c-0.1,0-0.4,0-0.5,0c-0.7,0-1.3,0.2-1.7,0.9   c-0.1,0.1-0.2,0.2-0.3,0.3c-0.1,0.1-0.3,0.2-0.5,0.4c-0.1,0.1-0.1-0.2-0.1-0.3c0-0.1,0-0.3,0.1-0.4c0-0.1,0.1-0.4,0.2-0.5   c0.1-0.1,0.1-0.2,0-0.2c-0.1,0-0.2,0.1-0.3,0.3c-0.1,0.2-0.2,0.6-0.2,1c0,0.2,0,0.5-0.2,0.7c-0.3,0.4-0.6,0.7-0.8,1.1   c-0.2,0.3-0.4,0.5-0.7,0.7c0,0-0.1,0-0.1,0c-0.3-0.1-0.7-0.2-1-0.3c-0.6-0.2-1.1-0.4-1.8-0.5c-0.1,0-0.3,0.1-0.2,0   c0.2-0.3,0.3-0.5,0.5-0.8c0.1-0.1,0.1-0.1,0.2-0.2c0.2-0.1,0.5-0.3,0.1-0.3c0,0-0.5,0.3-0.6,0.6c-0.1,0.2-0.2,0.3-0.3,0.5   c-0.2,0.3-0.6,0.5-0.9,0.6c-0.6,0.3-1.3,0.2-2,0.5c0,0-0.1,0-0.1,0c0-0.2,0.2-0.4,0.4-0.4c0.2,0,0.1,0,0.3,0c0.6,0,0.9-0.8,1-1.4   c-1.2,0-1.4,0.4-1.6,1.1c-0.1,0.4-0.5,0.7-0.9,0.9c-0.3,0.2-0.6,0.3-1,0.5c-0.1,0-0.2-0.1-0.2-0.2c0-0.1,0.1-0.1,0.1-0.2   c0.1-0.1,0.2-0.1,0.3-0.3c0.1-0.2,0.3-0.4,0.4-0.6c0.1-0.2,0.3-0.5,0.6-0.6c0,0,0.2-0.2,0.1-0.3c-0.1-0.1-0.3,0.2-0.4,0.2   c-0.1,0-0.4,0.4-0.5,0.5c-0.1,0.3-0.2,0.5-0.5,0.7c-0.1,0.1-0.2,0.1-0.3,0.2c-0.3,0.5-0.8,0.5-1.3,0.5c-0.1,0-0.2,0-0.2,0   c-0.3,0-0.6,0.1-0.9,0.1c0.1-0.4,0.2-0.7,0.5-0.8c0.2-0.1,0.4-0.1,0.6-0.1c0.2,0,0.6-0.2,0.7-0.4c0.2-0.4,0.3-0.8,0.5-1.3   c-0.2,0-0.5,0.1-0.7,0.1c-0.2,0.1-0.5,0.1-0.7,0.2c-0.3,0.2-0.5,0.6-0.5,1c-0.1,0.4-0.2,0.5-0.6,0.7c-0.1,0.1-0.1,0.1-0.2,0.2   c-0.2,0.5-0.7,0.7-1.2,0.9c0-0.2-0.1-0.3-0.1-0.4c0-0.1,0-0.3,0.1-0.4c0.2-0.4,0.4-0.7,0.6-1c0.2-0.3,0.5-0.6,0.6-0.9   c0.2-0.4,0.5-0.6,1-0.8c0.1,0,0.2-0.1,0.3-0.2c0.3-0.2,0.7-0.3,1.1-0.4c0.7-0.1,1.3-0.1,2,0.2c0.3,0.1,1,0.3,1.4,0.1   c0.2-0.1,0.3-0.1,0.5-0.2c0.3-0.1,0.6-0.2,0.9-0.3c0.2-0.1,0.5-0.1,0.8-0.1c0.3,0,0.5,0,0.8,0.1c0.1,0,0.4,0.1,0.4,0.2   c0.1,0.1,0.2,0.3,0.2,0.5c0.1,0.2,0.3,0.5,0.5,0.6c0.4,0.1,0.9,0.2,1.3,0.4c0-0.4-0.5-1.2-0.7-1.4c-0.4-0.3-0.5-0.3-1-0.3   c-0.2,0-0.6-0.1-0.8-0.3c0,0,0.2-0.2,0.2-0.3c0.3-0.4,0.4-0.5,0.7-0.5c0.4-0.1,0.8,0,1.1,0.2c0.1,0.1,0.3,0.1,0.4,0.1   c0.2,0,0.2-0.1,0.1-0.1c0,0-0.1-0.1-0.1-0.1c-0.1,0-0.2,0-0.3-0.1c-0.1,0-0.3-0.1-0.4-0.2c-0.1,0-0.3-0.1-0.2-0.2   c0.2-0.1,0.4-0.5,0.7-0.5c0.1,0,0.4,0.3,0.5,0.4c0.3,0.1,0.6,0.2,0.9,0.1c0.2,0,0.5-0.1,0.7-0.2c0.4-0.3,0.8-0.4,1.3-0.7   c0.2-0.2,0.3-0.4,0.5-0.4c0.4-0.1,0.6-0.2,1-0.1c0.8,0.1,1.3-0.7,1.4-1.3c-1-0.2-1.6,0-1.9,0.4c-0.2,0.2-0.3,0.7-0.7,0.8   c-0.1,0-0.3,0.2-0.3,0.3c-0.4,0.4-0.7,0.4-1.2,0.5c-0.2,0-0.1-0.1,0-0.2c0.2-0.3,0.4-0.5,0.6-0.8c0.1-0.1,0-0.1,0-0.1   c-0.1,0.1-0.3,0.2-0.4,0.3c-0.2,0.2-0.2,0.4-0.4,0.6c-0.1,0.1-0.2,0.3-0.3,0.4c0,0-0.2,0.1-0.2,0.1c-0.2,0.1-0.4,0-0.6,0   c-0.3,0-0.4-0.2-0.6-0.4c0.1-0.2,0.3-0.5,0.5-0.7c0.2-0.2,0.3-0.5,0.6-0.6c0.3-0.2,0.6-0.3,0.9-0.4c0.2-0.1,0.5-0.1,0.7-0.4   c0.3-0.3,0.5-0.4,0.9-0.3c0.3,0.1,0.8,0,1.1-0.1c0.4-0.2,0.7-1.1,0.7-1.2c0,0-0.8,0-1,0c-0.4,0.1-0.6,0.3-0.9,0.6   c-0.1,0.1-0.2,0.3-0.4,0.5c-0.2,0.2-0.4,0.3-0.7,0.5c-0.2,0.1-0.3,0.2-0.5,0.3c-0.3,0.1-0.6,0.1-1,0.2c0.1-0.2,0.2-0.5,0.2-0.8   c0.1-0.3,0.2-0.7,0.6-0.7c0,0,0.1,0,0.1,0c0-0.2,0.2-0.2,0.3-0.2c0.3,0,0.5-0.1,0.6-0.3c0,0,0.1-0.1,0.1-0.1c0.4,0,0.8-0.1,1.1-0.4   c0.2-0.2,0.5-1.3,0.4-1.3c-0.4,0.1-1,0.2-1.3,0.4c-0.4,0.2-0.3,0.7-0.5,1.1c-0.1,0.3-0.5,0.5-0.9,0.5c0-0.3,0-0.7,0.3-0.9   c0.3-0.2,0.5-0.4,0.6-0.8c0.1-0.2,0.1-0.8,0.1-0.8c-0.3,0.1-1,0.3-1.2,0.6c-0.2,0.3-0.2,0.7-0.1,0.9c0.1,0.2,0.1,0.4,0.1,0.6   c0,0.3-0.1,0.6-0.4,0.8c-0.1,0.1-0.1,0.2-0.2,0.3c-0.1,0.5-0.4,1-0.7,1.5c-0.1,0.2-0.3,0.4-0.3,0.6c-0.1,0.3-0.2,0.5-0.5,0.7   c0,0-0.1,0.1-0.2,0c0,0-0.1-0.1-0.1-0.2c0-0.3,0-0.4,0.2-0.5c0.2-0.2,0.6-0.4,0.7-1.1c0-0.2-0.2-0.8-0.3-1   c-0.1,0.4-0.5,0.6-0.7,0.9c-0.4,0.4-0.4,0.8-0.1,1.4c0,0.1,0.1,0.2,0.1,0.3c0,0.1,0,0.3,0,0.4c0,0.3-0.1,0.6-0.4,0.7   c-0.2,0.1-0.3,0.1-0.5,0.1c-0.1,0-0.2,0.1-0.3,0.2c-0.1,0.1-0.2,0.2-0.3,0.3c-0.2,0.3-0.7,0.5-1,0.5c0-0.1,0.1-0.3,0.2-0.4   c0.2-0.4,0.2-0.4,0.3-0.9c0-0.2,0.1-0.6,0.2-0.8c0.2-0.4,0.3-0.7,0.6-1c0-0.1,0.1-0.1,0.2-0.2c0.3-0.2,0.5-0.4,0.7-0.6   c0.3-0.3,0.3-0.6,0.5-1c0.1-0.4,0.4-0.7,0.8-0.9c0.1,0,0.1-0.1,0.2-0.2c0.2-0.2,0.2-0.4,0.5-0.5c0.2-0.1,0.3-0.2,0.2-0.2   c-0.3,0-0.5,0-0.7,0.2c-0.1,0.2-0.3,0.3-0.5,0.5c-0.3,0.1-0.5,0.4-0.7,0.6c-0.1-0.7,0.4-2,0.5-2.2c0.3-0.5,0.6-0.4,0.6-0.4   c0.5,0,0.6-0.1,1-0.3c0.3-0.1,0.6-0.1,0.9-0.2c0.5-0.2,0.8-1,0.9-1.7c-0.2,0.1-1.3,0.1-1.6,0.6c-0.2,0.3-0.3,0.5-0.4,0.9   c-0.1,0.3-0.2,0.4-0.4,0.4c-0.2,0-0.5,0.1-0.7,0.1c0-0.1,0.1-0.4,0.1-0.5c0.1-0.4,0.2-0.6,0.2-0.8c0.2-0.5,0.3-0.6,0.8-1   c0.5-0.3,0.8-1.2,0.4-1.9c-0.1,0-0.5,0.3-0.7,0.4c-0.5,0.4-0.6,0.7-0.5,1.3c0,0.2,0.1,0.4,0.1,0.6c0,0.2-0.1,0.3-0.2,0.5   c0,0.1-0.2,0.6-0.2,0.6c-0.1,0.3-0.2,0.5-0.3,0.9c-0.1,0.3-0.2,0.6-0.4,0.9c-0.1,0.1-0.2,1-0.3,1.2c-0.1-0.9-0.2-1.5-1.1-2   c-0.1,0.4-0.2,0.8,0,1.2c0.1,0.3,0.5,0.6,0.7,0.7c0.2,0,0.3,0.2,0.4,0.5c0,0.3,0,0.5,0,0.8c0,0.4-0.8,1.1-1,1.1c-0.2-0.1,0-1,0-1.2   c0-0.3-0.4-1.3-0.3-0.4c0.1,0.9,0,1.5,0,1.7c0,0.3-0.2,0.6-0.3,0.7c-0.2,0.2-0.2,0.8-0.4,0.8c-0.3,0,0-0.3-0.1-0.6   c-0.1-0.5-0.7-0.7-0.9-0.9c-0.2,0.4-0.1,1,0,1.1c0.2,0.6,0.6,0.4,0.8,0.5c0.1,0.1,0,0.3,0,0.5c0,0.3-0.1,0.5-0.2,0.7   c-0.1,0.2-0.2,0.3-0.3,0.5c-0.1,0.1-0.2,0.2-0.4,0.3c-0.2,0.1-0.4,0.1-0.5,0.2c-0.2,0.1-0.5,0.2-0.7,0.3c-0.2,0.1-0.4,0.1-0.6,0.1   c-0.6-0.1-1.2-0.3-1.8-0.4c0,0-0.1,0-0.1-0.1c0.1-0.1,0.2-0.1,0.2-0.1c0.2-0.2,0.4-0.4,0.7-0.6c0.2-0.2,0.6-0.2,0.8,0.1   c0.3,0.4,0.8,0.4,1.2,0.3c0.5-0.1,0.8-0.4,1-0.8c-0.1,0-0.3-0.1-0.4-0.1c-0.4-0.2-1.1-0.4-1.5,0c-0.2,0.2-0.3,0.2-0.5,0.2   c-0.1,0-0.2,0-0.4,0c0.2-0.2,0.2-0.4,0.3-0.5c0.1-0.2,0.1-0.2,0.2-0.4c0.1-0.2,0.3-0.4,0.3-0.7c0.1-0.5,0.6-0.8,0.9-1   c0.3-0.2,0.5-0.2,0.8-0.3c0.1-0.1,0.5-0.3,0.7-0.6c0.2-0.3,0.3-1,0.2-1.2c-0.1,0.2-0.3,0.2-0.6,0.4c-0.1,0-0.6,0.3-0.8,0.5   c-0.2,0.3-0.2,0.5-0.2,0.9c0,0,0,0.1-0.1,0.1c-0.3,0.2-0.5,0.3-0.8,0.5c0-0.1,0-0.1,0-0.2c0-0.3,0-0.5,0.1-0.8   c0-0.1,0.1-0.2,0.2-0.3c0.1-0.1,0.2-0.3,0.3-0.4c0.1-0.2,0.3-0.3,0.4-0.5c0.3-0.4,0.2-0.8,0.2-1.2c0-0.3,0-0.7,0.3-1   c0.2-0.3,0.5-0.3,0.8-0.4c0.3-0.1,0.5-0.1,0.8-0.1c0.1,0,0.2,0,0.2-0.1c0.1,0,0.2-0.2,0.3-0.2c0.4-0.1,0.6-0.1,0.8-0.2   c0.3-0.2,0.6-0.5,0.6-1c0-0.4-0.1-0.7-0.1-0.7c-0.8,0.4-1.5,0.7-1.6,1.7c0,0.2-0.3,0.4-0.5,0.4c-0.1,0-0.2,0-0.3,0   c-0.4,0-0.8,0-1.2,0c0.1-0.1,0.1-0.3,0.2-0.5c0.1-0.3,0.4-0.5,0.5-0.7c0.2-0.3,0.4-0.6,0.7-0.8c0.2-0.1,0.3-0.2,0.5-0.4   c0.2-0.2,0.4-0.3,0.7-0.3c0.1,0,0.2,0,0.3-0.1c0-0.1-0.1-0.1-0.1-0.1h-0.5c0.2-0.6,0.7-0.8,1.1-1.2c0.2-0.2,0.3-0.4,0.4-0.6   c0.1-0.3,0.1-1.3,0.1-1.3c-0.2,0.1-1,0.3-1.4,0.9c-0.3,0.5-0.2,1-0.2,1.5c0,0.5-0.3,0.9-0.7,1.2c-0.2,0.1-0.4,0.1-0.6,0.2   c-0.1,0-0.2,0.1-0.2,0.1c0-0.1,0-0.2,0-0.2c0-0.1,0-0.2,0-0.2c-0.1-0.4-0.2-0.8-0.2-1.2c0-0.2,0-0.4,0.1-0.5c0.8-0.3,1-0.7,1.2-1.4   c0.1-0.4,0-0.9,0.1-1.3c-0.2,0.1-0.6,0.2-0.7,0.3c-0.5,0.2-0.8,0.6-0.9,1.1c-0.1,0.5,0.1,0.9,0.1,1.4c0,0.5,0,1,0.2,1.4   c0,0.1,0,0.2,0,0.2c-0.1,0.6-0.3,1-0.6,1.5c-0.2,0.4-0.3,0.7-0.4,1.1c-0.1,0.3-0.1,0.9-0.2,1.2c-0.2,0.4-0.4-0.3-0.4-0.5   c-0.1-0.4-0.7-0.8-1.1-1c0.1,0.6,0.1,1.2,0.2,1.4c0.3,0.4,0.6,0.4,0.8,0.4c0.2,0,0.2-0.1,0.5,0c0,0.9-0.7,1.2-1,1.7   c-0.1-0.2-0.2-0.4-0.3-0.6c-0.2-0.4-0.2-0.4-0.4-0.4c0.2,0.3,0.3,0.7,0.2,1.1c0,0,0,0.1,0,0.1c0.2,0.4,0.1,0.9,0,1.3   c-0.2,0.9-0.6,1.6-1.1,2.3c-0.1,0.2-0.3,0.4-0.5,0.5c-0.2,0.2-0.4,0.3-0.7,0.5c0-0.3,0-0.4,0-0.6c0-0.2-0.1-0.3,0-0.5   c0-0.1,0.1-0.2,0.2-0.2c0.5-0.2,1-0.2,1.2-1c0.2-0.6,0.2-1.1,0.2-1.2c-0.4,0-1.2,0-1.5,0.6c-0.2,0.5-0.1,0.9-0.3,1.3   c-0.2,0.4-0.3,0.6-0.2,1.1c0.1,0.2-0.1,0.4-0.2,0.4c-0.4,0.3-0.7,0.4-1.2,0.5c-0.2,0-0.3-0.2-0.2-0.3c0-0.1,0.1-0.2,0.2-0.4   c0-0.1,0.2-0.2,0-0.3c-0.1,0.1-0.2,0.2-0.3,0.3c-0.1,0.2-0.3,0.3-0.3,0.5c-0.1,0.2-0.2,0.4-0.3,0.6c-0.2,0.3-0.5,0.6-0.7,0.9   c-0.2,0.3-0.3,0.6-0.5,0.8c-0.1,0.1-0.1,0.1-0.2,0.2c0,0-0.1,0-0.2,0c0,0-0.1,0,0-0.1c0-0.1,0-0.1,0-0.2c0-0.3,0.1-0.3,0.3-0.8   c0-0.1,0.1-0.3,0.2-0.4c0.2-0.3,0.3-0.6,0.5-0.9c0.2-0.3,0.4-0.6,0.7-0.8c0.2-0.1,0.3-0.4,0.4-0.6c0.3-0.7,0.7-1.4,0.9-2.1   c0.2-0.4,0.5-0.6,0.8-0.7c0.3-0.1,0.7-0.2,1-0.3c0.6-0.3,0.9-1,0.8-1.7c0-0.2-0.1-0.3-0.2-0.5c-0.3,0.3-0.6,0.5-0.8,0.7   c-0.4,0.3-0.6,0.7-0.6,1.1c0,0.2-0.1,0.3-0.2,0.4c-0.3,0.1-0.7,0.2-1.1,0.4c0.1-0.2,0.1-0.4,0.2-0.6c0.3-0.6,0.5-1.2,0.8-1.8   c0.2-0.3,0.4-0.6,0.7-0.8c0.4-0.2,0.7-0.4,1-0.8c0.1-0.1,0.2-0.2,0.3-0.3c0.3-0.2,0.3-0.5,0.4-0.9c0.1-0.2,0.2-0.5,0.3-0.7   c0.1-0.2,0.3-0.3,0.4-0.5c0.1-0.1,0.2-0.2,0.3-0.2c0.4-0.1,0.6-0.3,0.8-0.6c0.3-0.4,0.5-1.8,0.5-1.7c-0.2,0.2-0.7,0.4-0.9,0.4   c-0.7,0.3-0.8,1.1-0.7,1.3c0.1,0.3,0,0.4-0.2,0.7c-0.2,0.1-0.2,0.1-0.2,0c0-0.3,0-0.5-0.1-0.8c0-0.3,0-0.5,0-0.8   c0-0.2,0-0.4,0.1-0.6c0.1-0.2,0.2-0.4,0.3-0.5c0.3-0.2,0.5-0.4,0.6-0.7c0.3-0.6,1.2-0.9,1.2-1.5c0-0.4-0.1-1.5-0.1-1.5   s-1.1,1-1.2,1.7c-0.1,0.3,0.1,0.7,0,1.1c0,0.3-0.2,0.5-0.4,0.7c-0.2,0.2-0.5,0.3-0.6,0.7c0-0.1-0.1-0.1-0.1-0.2   c-0.1-0.3-0.1-0.4-0.2-0.7c-0.1-0.1-0.1-0.2-0.2-0.3c0-0.1-0.1-0.1-0.1-0.2c0-0.2-0.1-0.4-0.1-0.6c0,0,0.1-0.4,0.1-0.4   c0,0,0-0.1,0-0.1c0.1,0,0.3-0.1,0.7-0.4c0.4-0.4,0.3-2.1,0.3-2.1s-1,0.2-1.3,1c-0.2,0.5-0.1,1,0,1.2c0,0,0,0,0,0   c0,0.1,0,0.2,0.1,0.2c0,0.3-0.1,0.5-0.1,0.7c0,0-0.1,0-0.2-0.1c-0.1-0.2-0.2-0.4-0.3-0.4c-0.1,0.1-0.1,0.3,0,0.4   c0.2,0.3,0.6,0.5,0.7,1c0,0.1,0.1,0.1,0.1,0.2c0.2,0.2,0.3,0.5,0.3,0.8c0.1,0.8,0.1,1.6,0.1,2.4c0,0.2-0.2,0.5-0.2,0.7   c-0.1,0.1-0.1,0.1-0.1,0c0-0.3-0.1-0.5-0.1-0.8c0,0,0,0-0.1,0c0,0.1-0.1,0.1-0.1,0.2c0,0.1,0,0.3,0.1,0.4c0.1,0.4,0.1,0.7-0.1,1.1   c-0.3,0.6-0.8,0.8-1.4,1c0-0.4,0-0.8,0-1.2c0-0.2,0-0.5,0-0.7c0-0.3-0.1-0.5-0.1-0.8c0-0.1,0-0.3,0-0.4c-0.1-0.3,0-0.5,0.3-0.6   c0.9-0.5,0.6-1.7,0.3-2.1c0,0.1-0.9,0.7-0.8,1.4c0,0.3,0.1,0.5,0.1,0.7c0,0.3-0.1,0.6-0.1,0.9c0,0-0.2-0.2-0.2-0.2   c-0.2-0.4-0.3-0.7-0.5-1.1c-0.1-0.2,0-0.4-0.1-0.6c-0.1-0.3,0-0.6,0-0.9c0,0,0-0.6,0-0.6c0-0.1,0.1-0.2,0.1-0.2s0.3-0.4,0.5-0.7   c0.1-0.2,0.2-0.3,0.2-0.5c0-0.3,0.2-0.9,0.4-1.1c0.1-0.1,0.4-0.2,0.4-0.5c0.1-0.4,0-0.7-0.1-1c-0.1-0.2-0.2-0.3-0.3-0.5   c-0.4,0.5-0.8,1.4-0.4,1.8c0.1,0.1,0,0.3-0.1,0.4c0,0.2-0.1,0.3-0.2,0.5c0,0.2,0,0.4-0.1,0.6c-0.2,0.3-0.4,0.6-0.6,1c0,0,0,0,0,0   c-0.1-0.2-0.2-0.5-0.3-0.7c-0.2-0.2-0.3-0.4-0.3-0.7c-0.1-0.3-0.1-0.6,0.1-0.9c0.3-0.3,0.4-0.5,0.4-1c0-0.3-0.1-0.6-0.2-0.9   c0-0.2-0.1-0.5-0.2-0.7c-0.2,0.4-0.7,0.8-0.8,1.3c-0.1,0.7,0.1,0.9,0.2,1.1c0.1,0.2,0.2,0.6,0.2,0.9c-0.3-0.6-0.5-0.9-0.5-0.7   c0.1,0.1,0.3,0.7,0.3,0.8c0.2,0.6,0.4,0.9,0.5,1c0.3,0.4,0.3,0.8,0.3,1.3c0,0.6-0.1,1.1,0.1,1.7c0.2,0.6,0.4,1.1,0.7,1.6   c0.1,0.2,0.2,0.4,0.2,0.6c0.1,0.4,0.1,0.7,0.1,1.1c0,0.2,0,0.3-0.1,0.5c0,0.1-0.1,0.1-0.1,0c0-0.1,0-0.1,0-0.2   c-0.1-0.3-0.2-0.6-0.3-1c-0.1-0.2-0.2-0.3-0.4-0.3c0.1,0.2,0.2,0.4,0.2,0.6c0.1,0.2,0.1,0.5,0.1,0.7c0.1,0.4,0.2,0.9-0.1,1.3   c-0.1,0.1-0.2,0.3-0.2,0.5c-0.1,0.5-0.2,0.9-0.5,1.3c-0.3,0.4-0.5,0.9-0.5,1.4c0,0.3,0,0.7-0.1,1c-0.1,0.3-0.2,0.5-0.4,0.8   c-0.1,0-0.1-0.1-0.1-0.1c-0.1-0.3,0-0.6-0.2-0.8c-0.2-0.3-0.4-0.3-0.8-0.7c-0.2,0.7-0.2,1.3,0.2,1.5c0.5,0.2,0.6,0.1,0.7,0.3   c-0.1,0.3-0.4,0.5-0.7,0.7c-0.3,0.2-0.6,0.4-0.7,0.7c-0.1,0.2-0.3,0.4-0.5,0.7c0-0.4-0.1-0.7-0.1-1c0-0.4-0.1-0.8,0-1.1   c0.1-0.3,0.1-0.5,0.2-0.8c0.1-0.3,0.3-0.6,0.4-0.9c0.2-0.5,0.5-0.9,0.9-1.2c0.1-0.1,0.2-0.2,0.2-0.3c0.2-0.3,0.2-0.5,0.6-0.6   c0.1,0,0.2,0,0.3-0.1c0.1-0.2,0.1-0.7,0-0.7c-0.1,0,0,0.8-0.5,0.6c0-0.2,0-0.4,0-0.6c0-0.2-0.1-0.4-0.1-0.7c0-0.4,0.1-0.8,0.5-1.2   c0.1-0.1,0.3-0.3,0.3-0.6c-0.3,0.2-0.5,0.5-0.8,0.7c0-0.7-0.2-1.1,0.2-1.9c0-0.1,0.1-0.2,0.1-0.2c0.4-0.3,0.8-0.7,0.7-1.3   c0-0.3-0.2-0.9-0.5-1.5c-0.2,0.5-0.8,1.2-0.8,1.7c0,0.6,0.2,0.7,0.2,0.8c0,0.5-0.4,1-0.3,1.5c0,0.2-0.1,0.4-0.1,0.6   c0,0.4,0,0.6,0,1.1c0,0.1,0.1,0.5,0.1,0.5c0.1,0.7-0.2,1.1-0.7,1.6c-0.1-0.1-0.1-0.1-0.2-0.2c-0.2-0.2-0.4-0.5-0.4-0.7   c0.1-0.3,0.4-0.2,0.4-0.8c0-0.4-0.2-1.1-0.3-1.3c-0.1,0.2-0.6,0.8-0.7,1.1c-0.1,0.3-0.1,0.6,0.1,0.9c0.2,0.3,0.4,0.6,0.5,0.9   c0.2,0.3,0.1,0.4-0.1,0.6c-0.1,0.1-0.3,0.3-0.4,0.4c-0.2,0.3-0.3,0.6-0.4,0.9c-0.1,0.1-0.1,0.2-0.2,0.3c0,0,0,0-0.1,0   c0-0.1,0-0.2-0.1-0.3c-0.1-0.5-0.2-1-0.2-1.6c0-0.1,0-0.2,0-0.3c-0.1-0.4-0.1-0.8-0.2-1.3c0-0.3,0.1-0.6,0.2-0.9   c0.1-0.6,0.4-1.1,0.8-1.6c0.4-0.6,0.8-1.3,1-2c0.2-0.6,0.3-1.1,0.3-1.7c0-0.2,0-0.4,0.1-0.5c0.2-0.3,0.2-0.7,0.3-1   c0,0,0-0.3-0.1-0.1c-0.3,0.3-0.2,0.8-0.6,1.1c0-0.4-0.1-0.8-0.1-1.2c0-0.8,0.1-1.5,0.1-2.3c0-0.1,0-0.2,0.1-0.3   c0.2-0.5,0.4-0.9,0.3-1.4c-0.1-0.3-0.3-0.7-0.4-1c-0.3,0.4-0.7,0.9-0.8,1.4c0,1,0.5,1,0.5,1.5c0,0.3,0,0.5-0.1,0.8   c0,0.4-0.1,0.8-0.1,1.2c-0.7,0.1-1.3-0.3-1.4-0.9c0-0.2,0-0.4,0-0.5c0.1-0.2,0.1-0.3,0.2-0.5c0.1-0.2,0.1-0.7,0-1   c0,0-0.1,0-0.1,0.1c0,0.3,0,0.5,0,0.7c-0.1,0.2-0.2,0.5-0.3,0.8c0,0-0.3-0.7-0.3-0.8c0,0,0-0.1,0-0.2c0-0.5,0.2-0.7,0.1-1.2   c-0.1-0.4-0.6-1-0.8-1.3c-0.1,0.5-0.5,1.1-0.5,1.6c0.1,0.6,0.3,0.9,0.6,1c0.1,0.1,0.2,0.1,0.2,0.2c0.2,0.3,0.4,0.7,0.4,1.1   c0,0.1,0,0.1,0.1,0.2c0.3,0.2,0.6,0.5,0.9,0.7c0.2,0.2,0.5,0.2,0.7,0.4c0.1,0,0.2,0.1,0.2,0.2c0.1,0.1,0.1,0.2,0.1,0.4   c0,0.1,0,0.2,0,0.3c0,0.2,0,0.4,0,0.6c0,0.2,0,0.4,0,0.6c0,0.1,0,0.2,0,0.3c0,0.1,0,0.3,0,0.4c0,0.2-0.1,0.3-0.1,0.5   c0,0.1,0,0.2-0.1,0.2c-0.2-0.1-0.2-0.4-0.3-0.6c-0.1-0.2,0.1-0.7,0-1.1c-0.2-0.6-0.6-0.8-0.9-1.3c0,0.7-0.3,1.2-0.1,1.6   c0.3,0.8,0.7,0.8,0.9,1.1c0,0.1,0.1,0.2,0.1,0.3c0,0.1,0.1,0.1,0.1,0.1c0.1,0.2,0,0.2,0,0.3c0,0.1-0.1,0.2-0.1,0.3   c-0.1,0.2-0.2,0.4-0.4,0.5c-0.1,0.1-0.2,0.2-0.3,0.2c-0.2,0.1-0.2,0.1-0.3-0.1c-0.1-0.3,0-0.7,0-1c0-0.7-0.3-1.4-0.7-2   c-0.3-0.4-0.6-0.7-0.6-1.2c0-0.1,0.2-0.3,0.3-0.4c0.3-0.3,0.3-0.5,0.3-0.9c0-0.5-0.6-1.2-0.6-1.2c0,0-0.1,0.5-0.2,0.7   c-0.3,0.4-0.3,0.6-0.3,0.8c0,0.4,0.1,0.7,0.4,1.1c-0.1,0-0.1-0.1-0.1-0.1c-0.3-0.2-0.5-0.5-0.8-0.7c-0.4-0.3-0.6-0.7-0.7-1.2   c-0.1-0.4-0.1-0.7-0.1-1.1c0-0.1,0-0.1,0-0.2c0.1-0.4,0.2-0.5,0.2-0.8c0-0.6-0.3-1.3-0.7-1.6c-0.4,0.5-0.6,1.4-0.3,1.9   c0.2,0.3,0.5,0.4,0.5,0.8c0,0.3,0.1,0.9,0.2,1.3c-0.2-0.1-0.5-0.4-0.6-0.6c0-0.1,0-0.2-0.1-0.3c0-0.1-0.1-0.1-0.1-0.2   c-0.1-0.1-0.3-0.2-0.4-0.3c-0.1-0.1-0.2-0.3-0.2-0.4c0-0.1-0.1-0.2-0.1-0.2c-0.1,0-0.1,0.1,0,0.2c0,0.1,0.1,0.2,0.1,0.4   c0.1,0.1,0.2,0.2,0.3,0.3c0,0,0.1,0.1,0.1,0.1c0.1,0,0.2,0.1,0.2,0.2c-0.1,0.1-0.2,0.1-0.3,0.1c-0.1,0-0.3-0.2-0.4-0.2   c-0.1,0,0,0.2,0,0.2c0,0.1,0.1,0.1,0.2,0.1c0.1,0.1,0.3,0,0.4,0c0.1-0.1,0.2,0,0.2,0.1c0.1,0.1,0.1,0.2,0.2,0.3   c0.1,0.1,0.2,0.2,0.2,0.2c0.2,0.2,0.4,0.4,0.5,0.6c0.1,0.2,0.3,0.3,0.4,0.4c0.6,0.5,1.1,1,1.5,1.6c0.2,0.3,0.4,0.7,0.5,1.1   c-0.4-0.2-0.7,0-1,0.1c0,0-0.1,0-0.2,0c-0.3-0.1-0.5-0.4-0.7-0.6c-0.1-0.2-0.3-0.3-0.4-0.4c-0.2-0.2-0.3-0.3-0.3-0.6   c0-0.3,0-0.7-0.2-0.9c-0.3-0.5-1.1-0.9-1.1-0.9s0,1.1,0.1,1.5c0.2,0.5,0.4,0.7,0.8,0.7c0.1,0,0.2,0.1,0.3,0.1   c0.3,0.4,0.8,0.6,1,1.2c0,0-0.2,0-0.2,0c-0.5-0.2-1-0.5-1.1-0.5c-0.1,0-0.3-0.1-0.2,0.1c0.1,0.1,0.2,0.1,0.3,0.2   c0.2,0.1,0.3,0.1,0.5,0.2c0.2,0.2,0.5,0.3,0.8,0.2c0,0,0.1,0,0.1,0c0.3,0.2,0.6,0.1,1,0c0.1,0,0.3-0.1,0.3,0   c0.2,0.2,0.5,0.4,0.5,0.8c-0.2,0-0.4-0.3-0.6-0.1c0.5,0.4,0.7,0.9,0.6,1.5c0,0.1,0,0.3,0,0.4c0,0.2-0.1,0.3-0.2,0.5   c-0.1,0.4-0.3,0.8-0.2,1.2c0,0.3,0.1,0.5,0.2,0.8c0,0.1,0,0.2,0,0.3c0,0-0.1,0-0.1,0c0,0,0-0.1,0-0.1c-0.2-0.3-0.4-0.7-0.7-1   c-0.2-0.3-0.5-0.5-0.8-0.8c-0.3-0.3-0.4-0.7-0.3-1.1c0-0.2,0.2-0.5,0.2-0.9c-0.1-0.4-0.6-0.8-0.9-1c0,0.5-0.2,1,0,1.5   c0.1,0.2,0.5,0.5,0.5,0.7c0,0.2,0.1,0.8-0.1,0.7c-0.1,0-0.2,0-0.3-0.1c-0.6-0.2-1.1-0.5-1.2-1.2c-0.1-0.6-0.3-1.2-0.4-1.8   c0-0.2-0.1-0.4-0.1-0.6c0-0.3,0-0.6-0.1-0.9c-0.3-0.6-0.6-1.2-1-1.8c-0.2-0.3-0.2-0.7-0.2-1c0-0.2,0-0.4,0-0.7   c-0.1-0.6,0-0.6,0.2-1.1c0.1-0.5-0.1-1.3-0.7-1.6c-0.3,0.5-0.4,1.2-0.2,1.5c0.2,0.3,0.5,0.5,0.5,0.9c0,0.4,0,0.9,0,1.3   c0,0,0,0.1,0,0.1c-0.1,0.1-0.6-0.5-0.6-0.7c-0.1-0.2-0.1-0.5-0.1-0.5c0-0.1-0.1,0-0.1,0c0,0.1,0,0.1,0,0.2c0,0.2,0.1,0.3,0.2,0.5   c0.1,0.2,0.2,0.3,0.4,0.5c0.1,0.1,0.2,0.2,0.2,0.3c0.3,0.3,0.4,0.6,0.5,1c-0.2-0.1-0.4-0.2-0.6-0.3c-0.1,0-0.3-0.2-0.3-0.1   c0,0.1,0.1,0.2,0.1,0.2c0.2,0.1,0.4,0.2,0.5,0.3c0.3,0.2,0.6,0.4,0.8,0.8c0.1,0.3,0.1,0.5,0,0.8c-0.1-0.1-0.2-0.3-0.3-0.4   c-0.4-0.3-0.8-0.6-1.3-0.9c-0.1-0.1-0.2-0.2-0.2-0.4C50,26.2,50,26,49.9,25.8c-0.1-0.2-0.2-0.4-0.3-0.6c0-0.2-0.1-0.3-0.2-0.5   c-0.1-0.1-0.1-0.3-0.2-0.4c0-0.2,0-0.3,0-0.5c0-0.2,0-0.3,0-0.5c-0.1-0.3-0.2-0.5-0.4-0.7c-0.2-0.2-0.5-0.4-0.8-0.5   C48,22.5,47.9,22.7,48,23c0,0.3,0.1,0.5,0.2,0.7c0.1,0.2,0.3,0.4,0.5,0.5c0.2,0.1,0.4,0.3,0.6,0.5c0.1,0.1,0.2,0.3,0.2,0.5   c0,0.2-0.2,0.3-0.3,0.3c-0.1,0-0.2-0.1-0.3-0.2c-0.2-0.2-0.1,0.1-0.1,0.2c0.1,0.2,0.4,0.2,0.7,0.3c0.4,0.1,0.4,0.5,0.5,0.8   c0.1,0.2,0.2,0.4,0.3,0.5c0.2,0.2,0.4,0.3,0.6,0.5c0.1,0.1,0.2,0.2,0.3,0.3c0.2,0.2,0.4,0.5,0.6,0.7c0.2,0.2,0.4,0.6,0.4,1.2   l-0.2,0c0,0,0.1-0.4-0.5-0.7c-0.3-0.2-1-0.2-1-0.2s0,0.7,0.8,1.2c0.3,0.2,0.7-0.2,0.7-0.2s0.2-0.1,0.3,0c0.1,0.3,0.2,0.7,0.3,1   c0.1,0.4,0.7,1.1,0.6,1.2c-0.1,0-0.7,0.1-0.9,0c-0.1,0-0.2-0.3-0.2-0.2c-0.1,0.1,0,0.2,0.1,0.3c0.1,0.1,0.3,0.3,1.2,0.2   c0.1,0,0.2,0.1,0.2,0.1c0.3,0,0.5,0.1,0.8,0c0.4-0.1,0.8,0.1,1.1,0.5c0.4,0.4,0.7,0.9,0.7,1.6c0,0.6,0.3,1.1,0.4,1.7   c0.1,0.4,0.1,0.8,0.1,1.2c0,0,0,0-0.1,0c0,0-0.1,0-0.1-0.1c-0.2-0.3-0.3-0.5-0.5-0.8c-0.2-0.4-0.6-0.6-0.7-1.1   c0-0.1-0.1-0.4-0.1-0.4s0.3-0.2,0-1c-0.2-0.8-1.1-1.2-1.1-1.1c0,0.4-0.1,1,0,1.4c0.3,0.9,0.8,0.9,0.8,0.9s0,0.1,0,0.4   c-0.1-0.1-0.2-0.1-0.3-0.2c-0.3-0.2-0.6-0.4-0.9-0.5c-0.4-0.1-0.8-0.2-1-0.6c-0.1-0.2-0.3-0.4-0.5-0.6c-0.1-0.2-0.3-0.4-0.3-0.7   c0-0.3-0.1-0.6-0.2-0.8c-0.3-0.4-0.7-0.5-1.1-0.9c0,0.5,0,1.3,0.3,1.7c0.3,0.3,0.5,0.4,0.8,0.4c0.2,0,0.3,0.2,0.4,0.3   c0.1,0.2,0.3,0.4,0.4,0.6c0.2,0.2,0.3,0.5,0.3,0.5s0.1,0.1,0,0.1c0,0-0.3-0.1-0.4-0.2c-0.2-0.4-0.7-0.3-1-0.6   c0.1,0.2,0.1,0.4,0.4,0.4c0.2,0,0.4,0.1,0.5,0.3c0.1,0.2,0.3,0.2,0.5,0.2c0.2,0,0.3,0,0.5,0.1c0.1,0,0.3,0.1,0.4,0.2   c0.2,0.1,0.5,0.1,0.6,0.2c0.3,0.2,0.7,0.4,0.9,0.8c0.1,0.1,0.2,0.2,0.3,0.4c0.2,0.4,0.3,0.8,0.7,1.1c0.3,0.3,0.5,0.8,0.6,1.2   c0.1,0.4,0.1,0.7,0.2,1.1c0,0.3,0.1,0.7,0.1,1c0,0-0.1,0-0.1,0.1c-0.1-0.1-0.3-0.2-0.4-0.3c-0.2-0.2-0.3-0.4-0.5-0.5   c-0.3-0.2-0.6-0.3-0.9-0.4c-0.5-0.2-0.7-0.8-0.4-1.2c0.1-0.1,0.2-0.2,0.3-0.3c0.1-0.1,0.1-0.3,0-0.5c-0.1,0-0.4,0.4-0.7,0.7   c0,0-0.1,0.1-0.1,0.1c0-0.2,0-0.4,0-0.6c0.1-0.2,0.1-0.3-0.1-0.6c0,0,0.4-0.4-0.1-1.1c-0.2-0.3-0.8-0.6-1.1-0.7c0,0.2,0,0.6,0,0.8   c0,0.5,0.3,1,0.9,1.1c0,0.1,0.1,0.2,0.1,0.4c0,0.1,0,0.3,0,0.5c0,0.3,0,0.5,0,0.9c-0.3-0.2-0.5-0.4-0.7-0.8   c-0.1-0.2-0.2-0.4-0.3-0.6c-0.3-0.5-0.6-1-0.9-1.4c-0.1-0.2-0.1-0.3-0.2-0.5c-0.3-0.3-0.6-0.6-0.8-1c-0.3-0.4-0.7-0.8-0.9-1.3   c-0.1-0.3-0.2-0.6-0.1-0.9c0-0.2,0-0.5,0-0.7c-0.1-0.1-0.1,0.1-0.2,0.2c-0.1,0.2,0,0.5-0.1,0.7c0,0-0.1-0.2-0.1-0.2   c-0.2-0.4-0.3-0.9-0.3-1.3c0-0.1,0-0.6-0.1-0.6c0-0.1-0.1-0.3,0-0.4c0-0.2,0.1-0.4,0.1-0.6c0-0.2,0-0.4,0-0.7   c0-0.3-0.1-0.7-0.1-0.8c1.1-0.1,0.3-1.4,0.2-1.5c0,0.1-0.4,0.7-0.2,1.3c0,0-0.2-0.4-0.2-0.6c0-0.1-0.1-0.3-0.1-0.3   c-0.3-0.7-0.5-1.2-1-1.9c-0.2-0.3-0.4-0.4-0.5-0.8c0-0.3,0-0.8-0.2-1.1c-0.2-0.3-0.6-0.6-1-0.7c0,0.2-0.3,0.8,0.1,1.4   c0.4,0.6,0.8,0.5,0.9,0.6c0.5,0.7,1.2,1.8,1.4,2.7c0.1,0.3,0.2,0.6,0.2,0.9c0,0.1,0,0.1,0,0.2c0,0-0.1,0-0.2,0   c-0.2-0.1-0.4-0.3-0.6-0.4c-0.2-0.1-0.5-0.2-0.5-0.2c0-0.5,0.6-0.8,0-1.7c-0.1-0.2-0.4-0.4-0.6-0.5c0,0.3-0.1,0.5-0.1,0.7   c0,0.2-0.1,0.5,0,0.7c0.1,0.3,0.4,0.5,0.5,0.8c-0.1,0-0.6-0.1-0.8-0.1c-0.4,0.1-0.7,0-0.9-0.3c-0.1-0.2-0.3-0.3-0.4-0.6   c0-0.2,0.1-0.9-0.1-1.2c-0.3-0.4-0.9-0.6-1-0.8c-0.1,0.3-0.1,0.9,0.1,1.4c0.2,0.4,0.4,0.7,0.8,0.8c0.1,0.1,0.1,0.2,0.2,0.3   c0.2,0.2,0.4,0.6,1,0.6c-0.2,0.1-0.8,0.4-0.8,0.5c-0.1,0.1,0,0.1,0.1,0.1c0.4-0.1,0.3-0.3,1.2-0.6c0,0,0.1,0,0.2,0   c0.3,0.2,0.7,0.3,1,0.5c0.2,0.1,0.3,0.2,0.5,0.3c0.1,0.1,0.2,0.3,0.3,0.5c0.1,0.2,0.3,0.5,0.3,0.7c0,0.3,0.1,1.2,0.1,1.5   c-0.4-0.8-1.1-1.3-1.4-1.4c0.1,0.4,0.1,0.6,0.1,0.9c0,0.2,0,0.5,0.1,0.7c0.1,0.3,0.5,0.7,0.9,0.6c0.2,0,0.4-0.2,0.4-0.3   c0.1,0.4,0.2,0.9,0.4,1.3c0.1,0.4,0.3,0.8,0.5,1.2c-0.2-0.1-0.3-0.1-0.5-0.2c-0.3-0.1-0.6-0.2-0.9-0.2c-0.3,0-0.5-0.1-0.7-0.3   c-0.1-0.1-0.3-0.3-0.3-0.5c0-0.3-0.2-0.6-0.4-0.9c-0.2-0.1-0.2-0.2-0.2-0.4c-0.1-0.2-0.1-0.2-0.1-0.4c0-0.2-0.2-0.5-0.3-0.7   c0.2-0.4,0.2-0.7,0.1-1c-0.2-0.3-0.5-0.5-0.8-0.8c-0.1,0.6-0.1,1,0,1.1c0.2,0.5,0.4,0.6,0.6,0.7c0.1,0.1,0.2,0.2,0.2,0.4   c0,0.1,0,0.3,0.1,0.3c0.1,0.2,0.1,0.3,0.2,0.4c0,0.1,0,0.1,0.1,0.2c-0.1,0-0.5,0-0.6-0.1c-0.3-0.1-0.5-0.1-0.8-0.1   c-0.2,0-0.3,0.1-0.2,0.2c0,0,0.5,0,0.8,0.1c0.2,0.1,0.4,0,0.6,0.1c0.2,0.1,0.4,0.1,0.5,0.3c0.1,0.4,0.2,0.7,0.3,1.1c0,0,0,0,0,0   c0,0,0,0-0.1,0c-0.6-0.3-1.2-0.3-1.8-0.4c-0.4,0-0.7-0.1-1.1-0.2c-0.4-0.1-0.6-0.5-0.5-0.8c0.1-0.3,0.1-0.6,0-0.9   c-0.1-0.5,0-0.9-0.1-1.4c0-0.1,0-0.3,0-0.4c-0.1-0.2,0-0.4,0.1-0.5c0.1-0.2,0-0.7,0-0.7c-0.1,0,0,0.3,0,0.4   c-0.1,0.2-0.1,0.3-0.2,0.5c-0.1-0.1-0.2-0.3-0.3-0.4c-0.2-0.1-0.3-0.3-0.3-0.5c0-0.2,0-0.7-0.2-0.9c-0.3-0.3-1.4-0.9-1.4-0.9   s0,0.7,0.1,1.1c0.2,0.5,0.7,0.9,1.3,0.9c0,0,0.1,0,0.1,0.1c0.2,0.3,0.5,0.5,0.6,0.8c0.1,0.2,0.1,1,0,1.4c-0.2-0.3-0.4-1.1-0.6-1.3   c-0.2-0.2-0.6-0.3-0.9-0.4c0,0.2,0,1.2,0.3,1.4c0.3,0.3,0.7,0.5,1.3,0.4c0,0.1,0,0.1,0,0.2c0,0.3,0.1,0.5,0.1,0.8   c0,0.3-0.1,0.5-0.2,0.8c0,0,0,0-0.1,0c-0.2-0.1-0.3-0.2-0.5-0.3c-0.2,0-0.3-0.1-0.4-0.3c-0.2-0.3-0.5-0.6-0.9-0.8   c0,0-0.1-0.1-0.1-0.1c0-0.3-0.2-0.5-0.4-0.7c-0.5-0.5-1.2-0.6-1.9-0.6c0.1,0.2,0.2,0.4,0.3,0.6c0.1,0.2,0.2,0.3,0.3,0.4   c0.5,0.5,1.1,0.5,1.7,0.6c0.2,0,0.6,0.3,0.7,0.6c-0.7,0.1-0.8,0.1-0.9,0.2c0,0.1,0.3,0,0.4,0c0.2,0,0.3-0.1,0.5,0   c0.1,0,0.2,0.2,0.3,0.2c0.1,0,0.2,0.1,0.3,0.1c0.1,0,0.3,0.1,0.4,0.1c0.7,0.6,1.6,0.8,2.5,0.9c0.3,0,0.6,0.1,1,0.1   c-0.1,0.1-0.1,0.2-0.2,0.3c-0.1,0.2-0.2,0.3-0.4,0.2c-0.1,0-0.4-0.1-0.3,0.1c0.4,0.2,0.6,0.2,0.8-0.1c0.3-0.4,0.3-0.4,0.8-0.3   c0.4,0.1,0.8,0.3,1.2,0.2c0.1,0,0.1,0,0.2,0c0.5,0.1,0.9,0.3,1.3,0.6c0.3,0.2,0.7,0.3,0.9,0.7c0.1,0.2,0.3,0.4,0.4,0.6   c0.1,0.2,0.2,0.3,0.4,0.5c-0.2,0-0.3-0.1-0.4-0.1c-0.2-0.1-0.5-0.2-0.6-0.4C50.6,36.1,50.3,36,50,36c-0.1,0-0.3,0-0.4,0   c-0.1,0-0.1,0-0.2,0c0,0,0.1,0.1,0.1,0.1c0,0,0.1,0,0.2,0c0.3,0,0.6-0.1,0.9,0.2c0.2,0.3,0.4,0.5,0.7,0.7c0.3,0.2,0.6,0.4,0.8,0.7   c0.2,0.3,0.6,0.4,0.6,0.8c0,0.1,0.1,0.3,0.2,0.4c0.1,0.2,0.2,0.3,0.3,0.4c0.3,0.5,0.6,0.9,1.2,1c0.1,0,0.3,0.1,0.4,0.1   c0.7,0.3,1.2,0.8,1.6,1.4c0.2,0.3,0.6,0.6,0.6,1c0.1,0.3,0.1,0.6,0.2,0.9c-0.1,0-0.1,0-0.1,0c-0.2-0.3-0.5-0.6-0.7-0.8   c-0.3-0.3-0.6-0.6-0.9-0.8c-0.4-0.3-0.8-0.4-1.3-0.6c-0.2-0.1-0.4-0.2-0.6-0.2c-0.5,0-0.9-0.2-1.3-0.5c-0.1-0.1-0.2-0.2-0.3-0.4   c-0.1-0.2-0.1-0.4,0.1-0.5c0.4-0.3,0.4-0.9,0.1-1.3c-0.2-0.2-0.3-0.4-0.5-0.6c-0.1,0.3-0.2,0.5-0.3,0.8c-0.1,0.5-0.2,0.9,0.4,1.3   c0,0.4,0.2,0.5,0.3,0.6c0,0-0.3,0-0.3-0.1c-0.1,0-0.3-0.1-0.4-0.2c-0.1-0.1-0.3-0.2-0.4-0.3c-0.1-0.2-0.2-0.4-0.4-0.6   c-0.2-0.3-0.3-0.5-0.1-0.9c0.2-0.4,0.2-0.8,0.1-1.3c-0.3,0.1-0.2,0.3-0.2,0.5c0,0.1,0,0.2,0,0.3c0,0-0.1,0-0.1,0c0,0,0,0,0-0.1   c0-0.1,0-0.1,0-0.2c0-0.1-0.1-0.2-0.1-0.3c-0.1-0.3-0.4-0.4-0.6-0.6c-0.3-0.2-0.5-0.5-0.5-0.8c0,0,0,0,0,0c0-0.3,0-0.4-0.3-0.8   c-0.3-0.6-1.3-0.9-1.3-0.9s-0.1,0.9,0.3,1.5c0.3,0.5,1,0.5,1.2,0.5c0,0,0,0,0,0c0.3,0.4,0.7,0.8,1,1.3c0.1,0.2,0.1,0.3,0.1,0.5   c0,0.3,0,0.8,0.1,0.9c0.1,0.2,0.1,0.3,0.2,0.4C50.2,40,50,40,50,39.9c-0.4-0.2-0.7-0.3-1.1-0.5c0,0-0.1,0-0.1-0.1   c-0.2-0.2-0.3-0.4-0.5-0.6c-0.1-0.2-0.2-0.3-0.3-0.5c-0.1-0.3-0.2-0.6-0.2-0.9c-0.1-0.2-0.2-0.2-0.3-0.1c0,0,0.1,0.3,0.1,0.3   c0,0.1,0.1,0.2,0.1,0.3l0.1,0.3c0,0.1,0.1,0.2,0.1,0.3c-0.1,0-0.1,0-0.2-0.1c-0.2-0.1-0.3-0.3-0.5-0.4c-0.2-0.1-0.3-0.2-0.5-0.3   c-0.1,0-0.2-0.1-0.3-0.1c-0.6-0.2-0.7-0.6-0.7-1.3c0-0.2,0-0.3,0-0.5c0.1-0.2,0.1-0.4,0.2-0.7c0-0.5-0.4-0.9-0.6-1   C45,34.1,44.7,34,44.7,34s0,0.1-0.1,0.2c-0.1,0.3-0.1,1,0.1,1.3c0.2,0.3,0.6,0.5,0.6,0.5l0,0c0,0.1,0,0.2,0,0.3   c-0.1,0.4,0,0.4,0,0.7c0,0.2,0,0.3,0.1,0.5c-0.4,0-0.9,0-1.2-0.4c-0.1-0.1-0.2-0.1-0.3-0.2c-0.1-0.1-0.2-0.2-0.4-0.2   c-0.1,0-0.3-0.1-0.4-0.2c-0.1,0-0.1-0.2-0.1-0.4c0-0.1-0.1-0.3-0.1-0.4c-0.1-0.4-0.1-0.8-0.3-1.2c0-0.1-0.1-0.2-0.2-0.4   c-0.1-0.2-0.2-0.3-0.3-0.4c-0.2-0.1-0.4-0.2-0.6-0.3c-0.2-0.1-0.5-0.1-0.8-0.2c0,0,0,0.6,0.5,1.3c0.4,0.6,1.1,0.7,1.3,0.7   c0,0,0,0,0,0.1c0.1,0.1,0.1,0.3,0.1,0.5c0,0.2,0,0.4,0,0.6c0,0.4-0.4,0.3-0.7,0.3c-0.3-0.1-0.6-0.2-0.8-0.3c-0.1,0-0.5-0.3-0.6-0.4   c-0.3-0.2-0.3-0.2-0.5-0.5c-0.1-0.1-0.1-0.2-0.2-0.3c0-0.2,0-0.9-0.5-1.5c-0.6-0.7-1.4-0.7-1.7-0.8c0.1,0.2,0,1,0.6,1.7   c0.7,0.8,1.3,0.7,1.3,0.7l0.1,0c0,0,0,0,0,0c0.2,0.3,0.5,0.9,1.1,1.2c0.3,0.1,0.6,0.3,0.9,0.4c0.4,0.1,0.9,0.1,1.3,0.2   c0.2,0,0.4,0.1,0.5,0.2c0.3,0.2,0.5,0.4,0.7,0.6c-0.2,0.2-0.7,0.6-0.8,0.7c-0.1,0-0.4,0.1-0.6,0c0,0-0.2-0.1-0.2-0.1   c0,0-0.1-1-1.8-1c-0.1,0.2,0,0.4,0,0.5c0,0.2,0.1,0.3,0.3,0.4c0.2,0.2,0.5,0.3,0.8,0.3c0.2,0,0.3,0,0.5-0.1c0,0,0.2,0.2,0.2,0.2   c-0.5,0.3-1.1,0.3-1.6,0.1c0,0-0.4,0-0.5-0.1c-0.2,0-0.4,0-0.6-0.1c-0.2-0.1-0.4-0.1-0.5-0.4c-0.2-0.3-0.3-0.7-0.6-0.9   c0,0-0.2-0.9-1.2-1c-0.9-0.2-1.2-0.1-1.2-0.1s0.1,0.7,0.7,1.1c0.4,0.4,1,0.5,1.6,0.4c0.2,0,0.3,0,0.3,0.2c0.1,0.4,0.3,0.7,0.7,0.9   c-0.4,0.1-0.8,0.2-1.2,0c-0.1-0.1-0.7-0.6-1.6-0.4c-0.9,0.2-1,0.3-1,0.3s0.3,0.8,1.2,0.8c0.7,0,1.1-0.2,1.4-0.5   c0.1-0.1,0.3-0.1,0.4-0.1c0.2,0,0.3,0,0.5,0c0.1,0,0.1,0,0.2,0c0.1,0,0.1,0,0.1,0.1c0,0-0.6,0.3-0.7,0.4c-0.2,0.1-0.5,0.3-0.7,0.4   c-0.1,0-0.5,0.2-0.6,0.2c-0.2,0-0.4,0-0.4,0.3c0,0.1,0.5,0,0.7-0.1c0.1-0.1,0.5-0.3,0.5-0.2c-0.1,0.1-0.2,0.1-0.2,0.2   c0,0.1,0.2,0.1,0.3,0c0.1-0.2,0.3-0.3,0.3-0.4c0.1-0.2,0.3-0.3,0.6-0.4c0.3-0.2,0.5-0.3,0.8-0.6c0.1-0.1,0.4-0.1,0.5,0   c0.3,0.1,0.3,0.1,0.7,0.2c-0.1,0.1-0.4,0.3-0.5,0.4c-0.1,0.1-0.1,0.1-0.2,0.2c-0.1,0-0.8,0-1.3,0.5c-0.5,0.5-0.6,0.9-0.6,0.9   s1.5,0.9,2-1.2c0.1-0.2,0.2-0.3,0.4-0.4c0.1-0.1,0.1-0.1,0.2-0.1c0.3-0.1,0.7-0.4,1-0.4c0.5-0.1,0.8-0.2,1.3-0.4   c0.1,0,0.3-0.2,0.4-0.3c0.1-0.1,0.3-0.2,0.4-0.3c0.1-0.1,0.9-0.2,1.1-0.1c0.1,0-1.3,0.2-1.5,1.4c0.1,0,1,0.4,1.6-0.3   c0.3-0.3,0.1-0.9,0.1-1c0.2,0.1,0.3,0.1,0.4,0.2c0.2,0.1,0.5,0.2,0.7,0.4c0.4,0.3,0.7,0.7,1.1,1c-0.5,0.2-0.8,0.5-1,0.8   c-0.3,0.2-0.6,0.3-0.7,0.4C46.3,41,45.9,41,45.9,41s-0.3,0.1-0.6-0.4c-0.1-0.1-0.2-0.3-0.3-0.3c-0.1-0.1-0.4-0.1-0.4-0.1   s-0.4-0.1-0.5-0.1c-0.1,0-0.1,0.1-0.1,0.1c0,0.2,0.2,0.2,0.3,0.2c0.3,0,0.7,0.1,0.9,0.5c0.1,0.2,0.3,0.3,0.4,0.4   c-0.1,0.1-0.3,0.3-0.4,0.5c-0.1,0.1-0.2,0.1-0.2,0c-0.1-0.1-0.2-0.4-0.5-0.5c-0.5-0.3-1.3-0.2-1.3-0.2s0.3,0.6,0.4,0.8   c0.2,0.3,0.8,0.4,1.4,0.1c-0.1,0.1-0.6,0.5-0.7,0.5c-0.4,0-0.8,0-1.2-0.2c-0.1,0-0.2-0.1-0.3-0.1c-0.1,0-0.5-0.1-0.5-0.1   s-0.4-0.3-0.5-0.4c-0.1-0.1-0.2-0.2-0.3-0.3c0,0-0.1-0.1-0.2,0c0,0,0,0.1,0,0.1c0.2,0.2,0.6,0.7,0.6,0.7s-0.4,0-0.6,0   c-0.1,0-0.4,0.2-0.6,0.4c-0.1,0.1-0.7,0.3-0.7,0.3s-0.7-0.4-0.9-0.5c-0.4-0.3-0.7-0.4-1.2-0.4c-0.7,0-1.6,0.5-1.6,0.5   s0.3,0.9,1.4,0.8c0.8-0.1,1.2-0.7,1.2-0.7s0.6,0.4,0.9,0.6c-0.1,0.2-0.2,0.4-0.3,0.6c0,0-0.2,0.2-0.2,0.2c-0.3,0.1-1,0.3-1.1,0.4   c0,0.1,0.1,0.1,0.2,0.1c0.3-0.1,1-0.2,1.2-0.4c0.3-0.2,0.4-0.8,0.4-0.8s0.5-0.1,0.9-0.4c0.4-0.3,0.7-0.3,1.2-0.1   c-0.3,0.3-0.6,0.4-1,0.4c-0.1,0-0.2,0-0.2,0.1c0,0.1,0.6,0,0.9-0.1c0.1-0.1,0.4-0.2,0.5-0.3c0.3-0.1,0.6,0,0.9,0.1   c0.2,0.1,0.8,0.1,0.8,0.1s-0.1,0.5-0.2,0.6c-0.2,0.1-0.5,0.2-0.5,0.2c-0.5,0-0.9,0.1-1.3,0.4c-0.1,0.1-0.6,0.1-0.8-0.1   c0,0-0.2,0-0.2,0c-0.1,0.1,0.1,0.2,0.1,0.2c0.3,0.2,0.5,0.1,0.7,0.1c0,0.1-0.1,0.2-0.1,0.2c0,0,0,0,0,0.1c-0.4,0.3-0.7,0.4-1.2,0.4   c-0.3,0-0.7,0.2-0.9,0.2c-0.1,0-0.2,0.1-0.4,0c-0.4-0.1-0.9-0.2-1.3,0c-0.6,0.2-1,0.6-1,0.6s0.3,0.4,0.9,0.4   c0.4,0.1,0.8-0.1,1.2-0.3c0.3-0.3,0.7-0.5,1.1-0.7c0.3-0.1,0.9,0,1.2-0.1c0,0.1-0.5,0.4-0.5,0.6c-0.1,0.4-0.6,0.9-1.1,0.9   c-0.5-0.1-0.9,0.1-1.2,0.5c-0.2,0.2-0.6,0.8-0.6,0.8s1.1,0.6,1.9-0.4c0.2-0.2,0.3-0.5,0.5-0.7c0.3-0.3,0.6-0.5,0.8-0.9   c0.1-0.3,0.4-0.5,0.7-0.8c0.1-0.1,0.2-0.2,0.3-0.4c0.2-0.5,0.6-0.6,1.1-0.8c0,0.3,0,0.5,0,0.7c0,0.1,0,0.1-0.1,0.1   c-0.2,0.2-0.4,0.4-0.6,0.6c-0.4,0.4-0.6,0.9-0.4,1.5c0.1,0.1,0.1,0.4,0.1,0.4s0.9-0.3,1-1c0.1-0.6-0.2-1-0.2-1s0.2-0.2,0.3-0.3   c0.1-0.1,0.1-0.3,0.1-0.5c0-0.3,0.1-0.5,0.1-0.5s0.5,0,0.9-0.1c0.1,0,0.1-0.2,0.2-0.2c0.1-0.2,0.2-0.4,0.3-0.5   c0.1-0.1,0.2-0.2,0.2-0.4c0.1-0.3,0.3-0.5,0.6-0.6c0.1,0.2,0,0.3-0.1,0.4c-0.2,0.3-0.1,0.8,0.2,0.9c0-0.1-0.1-0.2-0.1-0.3   c0-0.1-0.1-0.3,0-0.4c0.1-0.2,0.2-0.4,0.1-0.7c0,0,0-0.1,0-0.1c0.2-0.2,0.3-0.3,0.6-0.4c0.5-0.1,1-0.2,1.3-0.7   c0.1-0.2,0.4-0.4,0.7-0.4c0.2,0,0.3-0.1,0.4-0.1c0.5,0,1,0,1.4,0.3c0.3,0.2,0.5,0.4,1,0.6c0.5,0.2,0.8,0.3,1.3,0.5   c0.3,0.2,0.6,0.3,0.9,0.4c0.3,0.1,0.6,0.2,0.8,0.4c-0.1,0-0.2,0-0.2,0c-0.3,0-0.6-0.2-1-0.1c-0.5,0.2-0.9,0.5-1.4,0.4   c-0.2,0-0.4-0.1-0.5,0c-0.7,0.2-0.9-0.2-1.1-0.5c-0.1-0.1-0.2-0.1-0.2-0.2c0-0.1,0.1-0.3,0.1-0.5c0-0.1,0-0.3-0.1-0.4   c-0.1-0.2-0.3-0.3-0.5-0.5c0,0-0.5-0.3-0.5-0.3c0,0-0.2,0.7-0.2,0.9c0,0.3,0.3,0.8,0.9,0.9c0.3,0.2,0.5,0.4,0.6,0.6   c0,0,0,0-0.1,0.1c-0.3,0.1-0.5,0.1-0.8,0.1c-0.5-0.1-0.9-0.2-1.2-0.7c0,0-0.6-0.7-1.4-0.2c-0.8,0.5-0.6,0.6-0.6,0.6l0.3,0.2   c0,0,0,0,0.1,0c0,0,0,0,0,0c0.4,0.2,1.1,0.2,1.4-0.1c0.1-0.1,0.2-0.1,0.3-0.1c0.3,0.1,0.5,0.3,0.8,0.4c-0.3,0.1-0.5,0.3-0.7,0.4   c-0.2,0.1-0.4,0.1-0.6,0.2c-0.4,0.2-0.4,0.7-0.4,0.7c0.1,0,0.2-0.3,0.3-0.5c0.1-0.1,0.6-0.3,0.7-0.3C48.2,44,48,44,47.9,44.2   c-0.2,0.3-0.3,0.7-0.2,1.1c0,0.3,0.2,0.7,0.2,0.7c0-0.1,0.5-0.4,0.7-1c0.2-0.4-0.1-1.1-0.2-1.1c0.1,0,0.1,0,0.4-0.2   c0.2-0.1,0.4-0.2,0.5-0.3c0.4-0.2,1-0.1,1.2-0.2c-0.2,0.2-0.3,0.3-0.3,0.5c0,0.1-0.1,0.2,0,0.2c0.1,0.1,0.1-0.1,0.2-0.1   c0.2-0.2,0.3-0.4,0.5-0.5c0.3-0.2,0.7-0.1,1-0.1c0,0.1,0.1,0.2,0.1,0.2c0,0.3-0.1,0.3-0.3,0.4c-0.4,0.2-0.7,0.5-0.9,0.9   c-0.1,0.2-0.2,0.5-0.2,0.7c0,0.1,0,0.2,0,0.2s0.2-0.1,0.2-0.1c0.1-0.2,0.2-0.3,0.2-0.5c0.1-0.5,0.5-0.8,1-1   c0.3-0.1,0.5-0.3,0.6-0.6c0-0.1,0.1-0.2,0.2-0.2c0.4-0.3,0.9-0.4,1.3-0.2c0.2,0.1,0.4,0.1,0.6,0c0.1-0.1,0.3-0.1,0.5-0.1   c0.5,0.2,0.6,0.3,0.8,0.9c0.1,0.3,0.3,0.3,0.5,0.6c0.1,0.2,0.3,0.3,0.4,0.5c0,0.1,0,5,0,9.3l-8,8H48l0.8-1.9l-1,1.9h-1.5l1.2-2.5   l-1.6,2.5l-1.5,0l1.9-3.3L44,62.2h-1.5l2.7-4.1l-3.2,4.1l-1.6,0l3.7-4.9l-4.5,4.9h-1.6l5-5.9l-6,5.9h-1.6l6.6-6.9l-8,6.9l-1.6,0   l8.7-7.9l-10.6,7.9h-1.6l11.3-9l-13.8,9l-1.5,0L39.3,52l-17.2,9.8c0,0.1,0,1.5,0,2.1h0C22.1,87,39.7,105,58.2,105   c18.5,0,36.3-18,36.3-41.1C94.5,63.4,94.5,62,94.5,61.8 M64,63l-3.2,3l-0.5-0.6l3.2-3L64,63z M57.4,61.9l0.5,0.6l-3.2,3l-0.5-0.6   L57.4,61.9z M54,64.6l-0.5-0.6l3.2-3l0.5,0.6L54,64.6z M56,65l3.1,3.3l-0.6,0.5l-3.1-3.3L56,65z M56.3,64.7l0.6-0.5l3.1,3.3   L59.4,68L56.3,64.7z M57.1,63.9l0.6-0.5l3.1,3.3l-0.6,0.5L57.1,63.9z M63.2,62.1l-3.2,3l-0.5-0.6l3.2-3L63.2,62.1z M62.4,61.2   l-3.2,3l-0.5-0.6l3.2-3L62.4,61.2z M58.1,57.4l3,3.3l-0.6,0.5l-3-3.3L58.1,57.4z M57.3,58.2l3,3.3L59.7,62l-3-3.3L57.3,58.2z    M56.4,59l3,3.3l-0.6,0.5l-3-3.3L56.4,59z M55.8,60.2l0.5,0.6l-3.2,3l-0.5-0.6L55.8,60.2z M27.3,64.1h1.9c0.1,0.5,0.3,1.2,0.2,1.4   c-0.1,0.3-0.9,0.2-1.6,0.1C27.4,65.6,27.3,64.6,27.3,64.1 M28.8,68.5c-0.5-0.3-0.8-1.2-0.7-1.8c0.1-0.6,0.9-0.6,0.9-0.6   c0.9-0.2,1.4,0.1,1.1,0.4C29.7,66.9,29.3,68.8,28.8,68.5 M30.1,73.8L30.1,73.8c-0.4-0.4-0.7-1.7-0.8-2c-0.1-0.4-0.1-1.2,0.4-1.4   c0.1,0,0.2-0.1,0.3-0.1c0.5-0.1,0.6,1,0.7,1.6c0,0.2,0.1,0.7,0.7,0.6c0,0,0,0,0.1,0c0.3,0,0.5,0,0.7,0.2c0.4,0.5,0.4,1.2,0.5,2   c0.1,0.3-0.3,1.1-0.8,1.1C31.6,75.7,30.4,74.1,30.1,73.8 M33.9,81.4c-0.1,0.1-0.4,0.1-0.6-0.1c-0.2-0.2-0.5-0.8-0.6-1.1   c-0.1-0.3-0.2-0.7-0.2-1.2c0-0.3,0.3-0.4,0.6-0.4c0.3,0,0.6-0.1,0.9,0.2c0.1,0.2-0.3,0.9-0.3,1.1C33.6,80.3,34,81.2,33.9,81.4    M33.5,77.8c-0.5,0-1.1-0.4-1.1-0.8c0-0.4,1.1-1,1.1-1s0.6,0,0.6,0.8C34.1,77.4,34,77.8,33.5,77.8 M33.9,73.3   c-0.1-0.6-0.6-1.7-1.4-2c0,0-0.6,0-0.9-0.3s-0.7-0.6-0.4-0.9c0.2-0.3,0.7-0.4,0.8-0.7c0.1-0.4-0.4-0.6-0.7-0.6   c-0.5,0-1.1-0.2-1.2-0.4c-0.2-0.8,1.1-1.3,1.7-1.6c0.4-0.3,0.3-1.2-0.4-1.2c-0.3,0-1.5-0.3-1.3-1.3h18.5l9.8,9.8   c-0.3,1.5-1,5.7-1.3,5.8c-1.3,0.6-2.8-0.9-3.2-1.3c-0.6-0.6-1.7-0.4-0.9,0.2c0.6,0.5,2.3,2.4,2.9,3.1c0.3,0.4,0.7,0.7,0.9,1   c0.5,0.6,0.2,0.7-0.2,1c-0.5,0.5-0.3,1.1-0.4,1.8c-0.2,0.9-1.4-0.2-1.8-0.5c-0.5-0.4-0.9-0.9-0.9-0.9c-0.4,0.3-0.4,0.7-0.2,1.2   c0.1,0.3,1.4,2.7,1.3,3c-0.2,0.4-0.6,1.1-1.6,1.3c-1,0.2-1.4,0-2.3,0.5c-0.6,0.3-1,0.3-0.9,0.9c0.1,0.4-0.3,0.8-0.2,1.2   c0.1,0.3-0.3,1.5-0.5,1.5c-0.3,0.1-1.7-1-2.4-1.2c-0.6-0.2-0.9,0-1.4,0c-0.1,0-0.2,0-0.4-0.1c-0.5-0.2-1.2-2.8-2.2-3.1   c-0.9-0.3-1.6-0.1-2.3-0.9c-0.6-0.6-1.3-1.4-1.6-1.7l0.6-0.8c0.2-1.3,0-2.4,0.8-3.3c1-1.1-1.2-3.4-1.2-3.4s-0.2-1.1-1.5-1.5   c-1.3-0.4-2.8-1.1-2.8-1.1C34.6,76,34.1,74,33.9,73.3 M38.1,81.9c0.1-0.4,1-0.5,1-0.5c0.6,0.8,0.2,1.6,0.2,1.6s-0.3,0.6-0.8,0.5   C38.1,83.5,38,82.4,38.1,81.9 M37.1,80c-0.5-0.5-1.3-1.7-0.8-1.8c0.5-0.1,1.1,0.4,1.1,0.4c1.2,0.6,0.8,1.4,0.8,1.4   S37.7,80.5,37.1,80 M35.1,81.8c-0.1-0.3-0.1-0.6,0-0.9c0.1-0.3,0.2-0.6,0.4-0.7c0.1,0,0.6,0.3,0.7,0.4c0.3,0.2,0.9,0.5,1,0.9   c0,0.1-0.1,0.2-0.2,0.2c-0.5,0.2-0.5,0.2-0.8,0.6c-0.2,0.2-0.3,0.3-0.6,0.1C35.2,82.2,35.2,82.1,35.1,81.8 M36.8,85.8   c-0.6-0.1-1.3-0.2-1.5-0.9c-0.1-0.4,0.6-0.6,0.8-0.9c0.3-0.3,0.2-0.5,0.8-0.6c0.5,0,0.4,0.5,0.4,0.7c0,0.2,0.2,0.9,0.3,1.3   c0.1,0.4,0.3,0.5-0.1,0.7C37.2,86.4,37,86,36.8,85.8 M39.2,89.6c-0.4,0-0.7,0-1,0c-0.3,0-0.9-1.4-0.8-1.7c0.1-0.3,0.7-0.1,0.7-0.1   C39.3,87.9,39.6,89.5,39.2,89.6 M41.7,93.5c-0.3-0.3-0.7-0.7-0.8-0.8c-0.3-0.5-0.7-1-1-1.5c-0.1-0.2,0-0.2,0.1-0.2   c0.3-0.1,0.8-0.3,1.2-0.2c0.2,0.1,0.6,1,0.8,1.2c0.1,0.1,0.1,0.1,0.2,0.2C42.4,92.5,42.7,93.8,41.7,93.5 M61.7,99.2   c-0.1,0.1-0.9,0.1-1,0.1c-0.6,0-1.1,0.3-1.7,0.4c-0.7,0.1-1.5-0.7-2.1-0.6c-0.5,0.1-0.8-0.1-1.3-0.2c-0.3-0.1-0.5-0.1-0.8-0.1   c-0.9-0.1-1-0.3-1.8-0.8c-0.9-0.6-1.8-0.6-2.6-0.3c-0.7,0.3-0.9,0.5-1.8,0c-0.7-0.4-1-0.6-1.8-0.7c-1-0.1-1.2-0.6-2-1.2   c-0.5-0.4-1.1-0.3-1.6-0.5c-0.2-0.1-0.4-0.4-0.7-0.7c-0.2-0.5,0.1-0.7,0.3-0.8c0.2-0.1,0.5-0.4,0.9-0.2c0,0,0.1,0,0.1,0   c0.2,0.1,0.4,0.2,0.5,0.3c1.4,0.8,1.4,0.2,2,0.5c0.3,0.1,1.3,1,1.7,1.3c0.6,0.4,1.5,0.6,1.9,0.5c0.5-0.1,0.2-0.4,0.3-0.6   c0.1-0.2,1.4-0.5,0.8-1c-0.6-0.5,0.2-1.3,0.4-1.6c0.3-0.3,0.6-1.9,0.8-1.9c0.1,0,0.2,0.1,0.3,0.1c0.4,0,1.5,0,1.8,0.2   c0.1,0,0.1,0.1,0.2,0.2c0.9,0.9,0.7,1,1.9,1c0.5,0,0.9,0,0.9,0.6c0,0.8-0.4,0.9,0.3,1.8c0.2,0.3,1,0.8,1.2,1.1   c0.1,0.1-0.1,0.6-0.1,0.9c0.1,0.3,0.1,1,0.6,1.1c0.4,0.1,0.4-0.6,0.6-0.9c0.4-0.3,1.7-1.3,2.3-0.6c0.1,0.1-0.8,1.8-1,2.1   C61.1,98.6,61.6,98.9,61.7,99.2 M65.4,98c-0.6,0.3-0.5,0.2-1.1,0.7c-0.1,0.1-0.8,0.1-0.9,0.1c-0.2,0-0.3-0.1-0.3-0.5   c0-0.4,0.4-0.8,0.5-0.9c0.2-0.1,0.8-0.5,1.1-0.4l0,0c0.1,0.1,0.2,0.1,0.3,0.1c0.2,0,0.3,0,0.4-0.2l0-0.1c0.1-0.2,0.4-0.4,0.6-0.2   C66.1,96.9,65.7,97.8,65.4,98 M83.6,79.1c-1.3,4.4-3.9,7.4-7.5,8.7l-0.1,0l-0.1,0c-3.7-1.3-6.3-4.3-7.5-8.7   c-0.9-3.3-0.8-6.2-0.8-6.3l0-0.4h0.4c0.5,0,0.9-0.1,1.2-0.4c0.4-0.4,0.4-1,0.4-1l0-0.5H71v-0.9h9.9v0.9h1.4l0,0.4   c0,0.1,0.1,1.5,1.6,1.5h0.4l0,0.4C84.4,72.9,84.6,75.8,83.6,79.1"/>
	<path clip-path="url(#SVGID_2_)" fill="#FFFFFF" d="M15.3,54.8l-0.3,0l0.2-1.9l0.3,0l0.2,0.6l2.2,0.3c1.3,0.1,1.9,0.9,1.7,2.3   c-0.2,1.5-0.9,2.2-2.3,2.1l-2.3-0.3l-0.3,0.6l-0.3,0l0.3-2.8l0.3,0l0.1,0.6l2.3,0.3c0.9,0.1,1.3-0.2,1.4-0.9   c0.1-0.7-0.3-1.1-1.1-1.2l-2.2-0.3L15.3,54.8z"/>
	<polygon clip-path="url(#SVGID_2_)" fill="#FFFFFF" points="16.2,51 15.8,51.6 15.5,51.5 16,49.2 16.9,48.9 19.5,48.1 19.5,48    17.1,47.4 16.6,48 16.3,47.9 16.8,45.9 17.1,46 17.3,46.7 21.2,47.7 20.9,49.1 19.9,49.5 17.2,50.4 17.2,50.5 19.7,51.1 20.2,50.5    20.5,50.6 20,52.6 19.7,52.5 19.5,51.8  "/>
	<polygon clip-path="url(#SVGID_2_)" fill="#FFFFFF" points="22.3,43.2 22.6,43.4 21.7,46.1 21.4,46 21.4,45.3 18,44.1 17.6,44.6    17.3,44.5 18.2,41.8 18.5,41.9 18.5,42.6 21.9,43.8  "/>
	<polygon clip-path="url(#SVGID_2_)" fill="#FFFFFF" points="24.4,39.5 23.9,40.5 19.4,40.3 18.9,40.8 18.6,40.6 19.8,38 20.1,38.2    20.1,38.8 23.3,39.1 21.1,37 20.4,37.4 20.1,37.3 21,35.3 21.3,35.5 21.4,36.3  "/>
	<path clip-path="url(#SVGID_2_)" fill="#FFFFFF" d="M25.4,31.3l-0.1,0.3l-0.9,0.1c-0.4,0-0.7,0.2-0.9,0.5l-0.3,0.5l1.4,0.8l0.1-0.2   c0.2-0.3,0.2-0.6-0.1-0.9l-0.1-0.1l0.2-0.3l1.6,1L26,33.4l-0.1,0c-0.4-0.1-0.7,0-0.8,0.3L25,33.9l1.4,0.8l0.4-0.7   c0.2-0.3,0.2-0.7,0.1-1l-0.3-0.9l0.2-0.2l1.3,1l-2.4,3.9l-0.3-0.2l0.2-0.6l-3.1-1.9l-0.5,0.4l-0.3-0.2l2.4-3.8L25.4,31.3z"/>
	<path clip-path="url(#SVGID_2_)" fill="#FFFFFF" d="M29,27.9L29,27.9c0.6-0.4,0.9-0.5,1.5-0.3c0.5,0.2,0.6,0.2,0.9,0.2   c0.2,0,0.3-0.1,0.5-0.2l0.2,0.2l-0.8,1c-0.3,0.4-0.6,0.4-1.2,0.2l-0.7-0.2c-0.4-0.1-0.6-0.1-0.9,0.3l-0.1,0.1l1.1,0.9l0.6-0.4   l0.2,0.2L28.6,32l-0.3-0.2l0.2-0.6l-2.8-2.3l-0.6,0.4L25,29l2-2.5c0.7-0.9,1.4-1,2-0.6C29.5,26.3,29.6,26.9,29,27.9 M27,27.4   l-0.2,0.2l1.3,1.1l0.2-0.2c0.3-0.4,0.3-0.9-0.1-1.2C27.7,26.9,27.4,27,27,27.4"/>
	<path clip-path="url(#SVGID_2_)" fill="#FFFFFF" d="M34.3,25.8c-0.4,0.4-0.9,0.7-1.3,0.8l0.1,0.3l-0.3,0.3l-1.3-1.2l0.4-0.4   c1,0.3,1.6,0.2,2-0.2c0.3-0.3,0.4-0.7,0.1-0.9c-0.3-0.3-0.5-0.2-1.1,0.1c-0.3,0.1-0.6,0.3-0.9,0.4c-0.6,0.2-1.2,0.3-1.7-0.3   c-0.7-0.7-0.4-1.8,0.2-2.4c0.4-0.3,0.7-0.5,1.1-0.7l-0.1-0.3l0.3-0.3l1.2,1l-0.3,0.4c-0.9-0.3-1.4-0.2-1.7,0.1   c-0.3,0.3-0.3,0.6-0.1,0.8c0.2,0.2,0.5,0.2,0.9,0c0.3-0.1,0.6-0.3,0.9-0.4c0.6-0.2,1.2-0.4,1.8,0.2C35.3,24.1,35,25.2,34.3,25.8"/>
	<polygon clip-path="url(#SVGID_2_)" fill="#FFFFFF" points="38.6,21.8 38.8,22 36.5,23.8 36.3,23.5 36.7,22.9 34.5,20 33.8,20.3    33.7,20 35.9,18.3 36.1,18.5 35.7,19.1 37.9,22  "/>
	<path clip-path="url(#SVGID_2_)" fill="#FFFFFF" d="M37.5,17.6l-0.2-0.3l2.3-1.3c1.5-0.8,2.9-0.6,3.5,0.7c0.7,1.3,0.2,2.7-1.4,3.5   l-2.2,1.2l-0.2-0.3l0.5-0.5l-1.8-3.2L37.5,17.6z M39.7,16.5l-0.2,0.1l1.8,3.3l0.3-0.2c0.6-0.4,0.7-1.1,0.1-2.2   C41.1,16.5,40.4,16.2,39.7,16.5"/>
	<path clip-path="url(#SVGID_2_)" fill="#FFFFFF" d="M45.8,17.6l0.6,0.1l0.1,0.3l-1.8,0.6l-0.1-0.3l0.5-0.5l0.2-4.4l1.2-0.4l2.8,3.5   l0.6,0.1l0.1,0.3l-2.5,0.9l-0.1-0.3l0.4-0.4l-0.5-0.6l-1.5,0.5L45.8,17.6z M45.9,14.4l-0.1,0l0,1.8l1.2-0.4L45.9,14.4z"/>
	<path clip-path="url(#SVGID_2_)" fill="#FFFFFF" d="M50,12.3l0-0.3l2.6-0.4c1.7-0.3,2.9,0.4,3.1,1.9c0.2,1.5-0.8,2.5-2.5,2.8   l-2.5,0.4l0-0.3l0.6-0.3l-0.5-3.6L50,12.3z M52.4,12.1l-0.3,0l0.6,3.7l0.4-0.1c0.7-0.1,1.1-0.8,0.9-2C53.8,12.5,53.2,12,52.4,12.1"/>
	<path clip-path="url(#SVGID_2_)" fill="#FFFFFF" d="M64,13.4l-0.5-0.8c-0.2-0.4-0.5-0.6-0.9-0.6l-0.7-0.1l-0.2,1.7l0.2,0   c0.4,0,0.6-0.1,0.8-0.5l0.1-0.1l0.4,0L63,14.8l-0.4,0l0-0.1c-0.1-0.4-0.3-0.6-0.7-0.6l-0.2,0l-0.1,1.4l0.7,0.3l0,0.3l-2.8-0.3   l0-0.3l0.7-0.1l0.4-3.6l-0.6-0.3l0-0.3l4.5,0.5l-0.1,1.8L64,13.4z"/>
	<polygon clip-path="url(#SVGID_2_)" fill="#FFFFFF" points="67.8,16.8 67.7,17.2 64.9,16.5 65,16.1 65.7,16.1 66.6,12.6 66,12.2    66,11.9 68.8,12.6 68.7,12.9 68.1,13 67.2,16.5  "/>
	<polygon clip-path="url(#SVGID_2_)" fill="#FFFFFF" points="70.9,13.9 70.4,13.4 70.6,13.1 72.7,14 72.8,14.9 73.2,17.6 73.3,17.6    74.3,15.4 73.8,14.8 73.9,14.5 75.8,15.3 75.7,15.6 74.9,15.6 73.3,19.4 72,18.8 71.8,17.8 71.3,14.9 71.2,14.9 70.2,17.3    70.7,17.9 70.6,18.2 68.7,17.4 68.8,17.1 69.6,17  "/>
	<polygon clip-path="url(#SVGID_2_)" fill="#FFFFFF" points="77.4,21.4 77.2,21.6 74.8,20.2 74.9,19.9 75.6,20 77.5,16.9 77,16.4    77.2,16.1 79.7,17.6 79.5,17.9 78.8,17.7 76.9,20.8  "/>
	<path clip-path="url(#SVGID_2_)" fill="#FFFFFF" d="M79.8,23.7c-0.4-0.3-0.8-0.8-1-1.2l-0.3,0.1l-0.3-0.2l1-1.4l0.4,0.3   c-0.2,1.1,0,1.6,0.5,2c0.3,0.3,0.7,0.3,0.9,0c0.2-0.3,0.1-0.6-0.2-1c-0.2-0.2-0.4-0.5-0.5-0.8c-0.3-0.5-0.4-1.1,0-1.7   c0.6-0.8,1.7-0.7,2.4-0.1c0.4,0.3,0.7,0.7,0.8,1l0.3-0.1l0.3,0.2L83.2,22l-0.4-0.3c0.2-0.9,0-1.4-0.4-1.7c-0.3-0.2-0.6-0.2-0.8,0   c-0.2,0.3-0.1,0.5,0.1,0.9c0.2,0.3,0.4,0.5,0.5,0.8c0.3,0.5,0.5,1.2,0.1,1.8C81.6,24.4,80.5,24.3,79.8,23.7"/>
	<path clip-path="url(#SVGID_2_)" fill="#FFFFFF" d="M89,29l0.2-0.9c0.2-0.6,0.2-0.9,0-1.1l-0.1-0.1l-2.8,2.4l0.3,0.6l-0.3,0.2   L84.6,28l0.3-0.2l0.6,0.4l2.8-2.4l-0.1-0.1c-0.2-0.2-0.5-0.2-1.1-0.1l-0.9,0.1l-0.2-0.3l1.6-1.2l3.1,3.7l-1.4,1.4L89,29z"/>
	<path clip-path="url(#SVGID_2_)" fill="#FFFFFF" d="M92.7,33.9l-0.2-0.2l0.3-0.8c0.1-0.4,0.1-0.7-0.1-1.1l-0.3-0.5l-1.3,0.9   l0.1,0.2c0.2,0.3,0.5,0.4,0.9,0.3l0.1,0l0.2,0.3l-1.5,1l-0.2-0.3l0.1-0.1c0.2-0.3,0.3-0.6,0.1-0.9l-0.1-0.2l-1.4,0.9l0.5,0.7   c0.2,0.3,0.5,0.5,0.9,0.5l1,0.1l0.1,0.3l-1.5,0.8l-2.5-3.9l0.3-0.2l0.5,0.4l3-2l-0.2-0.6l0.3-0.2l2.5,3.8L92.7,33.9z"/>
	<path clip-path="url(#SVGID_2_)" fill="#FFFFFF" d="M94.4,38.6l-0.1,0.1c0.2,0.6,0.2,1-0.2,1.4c-0.4,0.4-0.4,0.5-0.5,0.7   c-0.1,0.2-0.1,0.3,0,0.5l-0.3,0.1l-0.5-1.1c-0.2-0.4-0.1-0.7,0.3-1.2l0.5-0.5c0.3-0.3,0.3-0.5,0.1-0.9l0-0.1l-1.3,0.6l0.1,0.7   L92,39l-1.2-2.5l0.3-0.1l0.5,0.5l3.3-1.6l-0.1-0.7l0.3-0.1l1.4,2.9c0.5,1,0.4,1.7-0.3,2C95.6,39.6,95,39.5,94.4,38.6 M95.6,36.9   l-0.1-0.3l-1.6,0.8l0.1,0.3c0.2,0.5,0.6,0.7,1.2,0.4C95.8,37.8,95.9,37.4,95.6,36.9"/>
	<path clip-path="url(#SVGID_2_)" fill="#FFFFFF" d="M96.8,44.6l-0.1,0c0.1,0.7,0.1,1-0.4,1.4c-0.4,0.3-0.5,0.4-0.6,0.6   c-0.1,0.2-0.1,0.3-0.1,0.5l-0.3,0.1l-0.4-1.2c-0.2-0.4,0-0.7,0.4-1.1l0.5-0.4c0.3-0.3,0.4-0.5,0.2-0.9l0-0.1l-1.4,0.5l0,0.7   l-0.3,0.1l-0.9-2.6l0.3-0.1l0.4,0.5l3.4-1.2l0-0.7l0.3-0.1l1.1,3.1c0.4,1.1,0.2,1.7-0.5,2C97.8,45.7,97.3,45.5,96.8,44.6 M98.2,43   l-0.1-0.3l-1.6,0.6l0.1,0.3c0.2,0.5,0.6,0.7,1.1,0.5C98.2,43.9,98.4,43.6,98.2,43"/>
	<path clip-path="url(#SVGID_2_)" fill="#FFFFFF" d="M96.2,48.7l-0.1,0.6l-0.3,0.1l-0.4-1.9l0.3-0.1l0.4,0.6l4.4,0.6l0.3,1.3   L97,52.3l-0.1,0.6L96.6,53L96,50.4l0.3-0.1l0.3,0.5l0.7-0.4l-0.4-1.6L96.2,48.7z M99.3,49.2l0-0.1l-1.8-0.2l0.3,1.2L99.3,49.2z"/>
	<path clip-path="url(#SVGID_2_)" fill="#FFFFFF" d="M100.2,57.9l-0.1-0.3l0.6-0.6c0.3-0.3,0.4-0.5,0.4-1l-0.1-0.6l-1.6,0.2l0,0.2   c0,0.4,0.2,0.6,0.6,0.7l0.1,0l0,0.4l-1.8,0.2l0-0.4l0.1-0.1c0.3-0.2,0.5-0.4,0.5-0.8l0-0.2l-1.6,0.2l0.1,0.8c0,0.3,0.2,0.6,0.5,0.8   l0.8,0.5l0,0.3l-1.7,0l-0.5-4.6l0.3,0l0.3,0.6l3.6-0.4l0.1-0.7l0.3,0l0.5,4.5L100.2,57.9z"/>
</g>
<g>
	<defs>
		<rect id="SVGID_3_" x="-49" y="-154" width="792" height="612"/>
	</defs>
	<clipPath id="SVGID_4_">
		<use xlink:href="#SVGID_3_" overflow="visible"/>
	</clipPath>
</g>
</svg>